<svg width="765" height="558" viewBox="0 0 765 558" fill="none" xmlns="http://www.w3.org/2000/svg">
    <path d="M620.472 322.696C619.762 321.774 619.139 320.799 618.516 319.813C606.506 301.088 554.027 309.963 554.027 309.963C548.092 355.107 537.765 349.786 535.852 346.947C533.94 344.108 530.486 316.226 528.202 312.434C521.601 311.859 508.116 311.957 508.116 311.957C495.1 312.26 482.86 323.617 470.816 342.114C458.773 360.601 437.539 376.249 437.539 376.249C437.539 376.249 443.845 376.823 446.14 390.477C447.55 390.91 451.779 389.057 454.861 387.562C457.61 386.228 460.676 385.67 463.724 385.947C468.685 386.403 475.822 387.974 481.526 393.327C482.228 393.976 482.973 394.577 483.756 395.126C484.477 394.725 484.881 394.454 484.881 394.454C496.641 389.621 503.526 372.835 503.526 372.835C502.572 370.725 502.016 368.459 501.886 366.149C501.7 363.851 501.733 361.539 501.985 359.247C502.236 357.003 502.411 354.782 502.477 352.55C502.591 350.299 502.492 348.042 502.182 345.81C503.118 347.93 503.652 350.204 503.755 352.517C503.916 354.814 503.868 357.121 503.613 359.409C503.362 361.641 503.22 363.863 503.165 366.106C503.084 368.355 503.205 370.607 503.526 372.835C504.185 378.825 505.614 384.706 507.777 390.336C510.884 391.357 514.088 392.058 517.339 392.428C518.939 392.608 520.551 392.659 522.159 392.579C523.806 392.488 525.447 392.315 527.077 392.059C525.606 392.933 523.988 393.535 522.301 393.836C521.457 393.998 520.602 394.099 519.744 394.14C518.883 394.151 518.022 394.118 517.165 394.042C515.459 393.858 513.784 393.458 512.181 392.85C510.582 392.26 509.094 391.411 507.777 390.336C508.697 392.842 509.919 395.229 511.416 397.445C519.522 397.908 527.468 399.882 534.836 403.264C536.705 404.12 538.421 405.269 540.147 406.114C541.906 406.983 543.747 407.677 545.644 408.184C549.465 409.214 553.401 409.768 557.36 409.831C559.371 409.896 561.283 409.787 563.36 409.722C565.4 409.7 567.44 409.798 569.469 410.015C573.491 410.427 577.501 410.882 581.479 411.575C582.998 411.836 584.506 412.117 586.015 412.41C585.315 411.469 584.715 410.459 584.222 409.397C583.454 407.797 582.878 406.113 582.507 404.38C582.124 402.648 581.894 400.885 581.818 399.114C581.719 397.327 581.788 395.535 582.026 393.76L582.037 393.706L582.058 393.63C582.657 391.708 583.028 389.722 583.162 387.714C583.332 385.677 583.354 383.631 583.228 381.591C583.086 379.549 582.834 377.516 582.474 375.501C582.08 373.518 581.556 371.448 581.271 369.357C580.699 365.188 580.567 360.972 580.878 356.776C580.987 354.685 581.206 352.593 581.523 350.534C581.815 348.467 582.212 346.417 582.714 344.39C582.196 348.51 581.911 352.656 581.862 356.808C581.801 360.93 582.105 365.049 582.769 369.118C582.911 370.137 583.162 371.134 583.37 372.131L584.047 375.209C584.45 377.288 584.717 379.391 584.845 381.505C585.168 385.741 584.675 390 583.392 394.053C583.121 395.719 582.982 397.404 582.976 399.092C582.964 400.809 583.099 402.524 583.381 404.218C583.655 405.917 584.095 407.586 584.692 409.202C585.113 410.338 585.644 411.43 586.277 412.464C588.648 412.941 590.998 413.483 593.326 414.122C597.239 415.136 601.002 416.655 604.517 418.641C600.885 416.946 597.062 415.688 593.129 414.891C591.107 414.425 589.071 414.021 587.02 413.678C587.014 413.672 587.006 413.668 586.998 413.667C585.108 413.342 583.206 413.06 581.293 412.811C577.316 412.301 573.327 411.857 569.338 411.543C567.362 411.359 565.377 411.284 563.393 411.315C561.458 411.38 559.338 411.521 557.327 411.456C553.23 411.373 549.16 410.768 545.218 409.657C543.24 409.084 541.322 408.322 539.492 407.382C538.574 406.937 537.678 406.341 536.836 405.854C535.995 405.344 535.153 404.814 534.268 404.38C530.734 402.54 527.011 401.08 523.164 400.024C519.317 398.881 515.391 398.019 511.416 397.445L502.378 398.301C502.657 398.682 502.861 399.112 502.979 399.569C505.307 407.035 501.952 436.282 501.952 436.282C514.859 445.667 586.299 460.177 586.299 460.177C632.352 467.859 632.778 427.31 632.778 427.31C641.018 354.544 624.822 328.287 620.472 322.696ZM562.846 396.87C562.002 397.032 561.147 397.134 560.289 397.174C559.428 397.185 558.567 397.152 557.709 397.076C556.004 396.893 554.329 396.492 552.726 395.884C551.127 395.294 549.639 394.445 548.322 393.37C551.428 394.391 554.633 395.092 557.884 395.462C559.484 395.643 561.096 395.693 562.704 395.613C564.351 395.522 565.992 395.349 567.622 395.093C566.151 395.967 564.533 396.569 562.846 396.87V396.87Z" fill="black"/>
    <path d="M528.106 312.485C527.791 312.014 527.441 311.568 527.059 311.15C526.678 310.738 526.259 310.363 525.809 310.027C525.361 309.7 524.879 309.422 524.369 309.201C523.879 308.983 523.357 308.843 522.823 308.786L522.993 308.753C521.896 309.276 520.737 309.66 519.543 309.896C518.331 310.155 517.081 310.195 515.854 310.016C514.58 309.829 513.379 309.308 512.375 308.508C511.452 307.689 510.642 306.752 509.966 305.722C508.647 303.739 507.474 301.665 506.456 299.515C505.43 297.38 504.507 295.222 503.647 293.004L504.531 293.582C503.512 293.685 502.485 293.53 501.543 293.132C500.995 292.877 500.532 292.47 500.211 291.961C499.915 291.469 499.738 290.915 499.695 290.344C499.644 289.364 499.784 288.384 500.109 287.457C500.393 286.573 500.769 285.72 501.23 284.913C502.094 283.659 502.499 282.151 502.379 280.637C502.31 279.901 502.105 279.183 501.775 278.519L501.18 277.413C500.973 277.021 500.774 276.623 500.587 276.215C500.201 275.399 499.893 274.549 499.667 273.675C499.421 272.825 499.221 271.962 499.069 271.09C498.88 270.225 498.821 269.339 498.711 268.462C498.676 267.577 498.622 266.695 498.669 265.811C498.744 262.258 499.621 258.766 501.236 255.593C501.292 255.486 501.378 255.397 501.483 255.337C501.588 255.276 501.708 255.247 501.829 255.251C501.95 255.256 502.068 255.295 502.168 255.363C502.268 255.431 502.346 255.526 502.394 255.637L502.404 255.661C503.738 258.715 505.44 261.597 507.474 264.245C509.499 266.918 511.931 269.262 514.683 271.194C517.428 273.13 520.563 274.453 523.873 275.073C527.178 275.677 530.573 275.587 533.84 274.808L533.863 274.803C533.94 274.786 534.02 274.791 534.095 274.817C534.169 274.843 534.234 274.89 534.283 274.952C535.601 276.751 536.519 278.807 536.977 280.985C537.464 283.112 537.713 285.286 537.719 287.467C537.73 289.638 537.574 291.806 537.252 293.953C536.867 295.992 536.723 298.068 536.82 300.139C536.919 302.141 537.465 304.097 538.419 305.864C539.371 307.566 540.826 308.939 542.588 309.797C544.384 310.628 546.369 310.978 548.344 310.812C550.367 310.65 552.348 310.144 554.199 309.317C554.377 309.24 554.573 309.212 554.766 309.234C554.959 309.256 555.143 309.328 555.299 309.443C555.454 309.559 555.577 309.712 555.654 309.89C555.73 310.067 555.759 310.261 555.736 310.452L555.734 310.466C554.931 317.373 553.684 324.221 551.998 330.97C551.125 334.376 549.977 337.707 548.566 340.931C547.841 342.578 546.951 344.149 545.909 345.619C545.364 346.376 544.746 347.079 544.063 347.718C543.354 348.407 542.521 348.958 541.607 349.341C540.628 349.758 539.546 349.876 538.499 349.681C537.462 349.47 536.508 348.966 535.754 348.229C535.352 347.851 535.03 347.395 534.81 346.891C534.633 346.454 534.484 346.008 534.362 345.554C534.117 344.688 533.931 343.835 533.747 342.98C533.026 339.569 532.53 336.151 531.979 332.74L530.361 322.515C530.083 320.813 529.793 319.114 529.458 317.426C529.185 315.736 528.732 314.079 528.106 312.485L528.099 312.469C528.087 312.444 528.086 312.415 528.095 312.389C528.105 312.362 528.124 312.34 528.149 312.328C528.175 312.315 528.204 312.313 528.231 312.322C528.258 312.33 528.28 312.348 528.294 312.373C529.055 313.945 529.628 315.599 530 317.304C530.434 318.981 530.821 320.668 531.196 322.357C531.954 325.733 532.592 329.129 533.277 332.512C533.949 335.895 534.646 339.28 535.412 342.613C535.612 343.44 535.816 344.271 536.062 345.061C536.173 345.438 536.307 345.809 536.461 346.171C536.596 346.456 536.789 346.71 537.028 346.917C537.524 347.394 538.155 347.709 538.836 347.821C539.517 347.933 540.217 347.836 540.841 347.543C542.218 346.814 543.375 345.735 544.194 344.418C545.111 343.033 545.9 341.569 546.55 340.043C547.874 336.915 548.943 333.688 549.746 330.391C551.371 323.727 552.637 316.981 553.54 310.183L555.075 311.332C552.981 312.231 550.746 312.766 548.469 312.913C546.131 313.071 543.792 312.62 541.685 311.604C539.567 310.546 537.834 308.86 536.728 306.781C535.686 304.75 535.114 302.515 535.051 300.238C534.994 298.043 535.201 295.848 535.667 293.701C536.057 291.64 536.287 289.552 536.355 287.456C536.433 285.368 536.27 283.278 535.872 281.226C535.513 279.202 534.738 277.273 533.594 275.558L534.036 275.701C530.64 276.399 527.14 276.428 523.733 275.787C522.036 275.459 520.384 274.939 518.807 274.237C517.225 273.555 515.714 272.724 514.294 271.755C511.465 269.802 508.934 267.457 506.778 264.791C504.572 262.149 502.7 259.25 501.203 256.158L502.371 256.226C501 259.243 500.319 262.524 500.376 265.833C500.383 267.483 500.557 269.129 500.896 270.746C501.054 271.555 501.257 272.356 501.505 273.143C501.723 273.922 502.007 274.682 502.354 275.414C502.525 275.783 502.71 276.15 502.904 276.514C503.099 276.888 503.298 277.208 503.53 277.667C503.967 278.539 504.24 279.483 504.335 280.452C504.484 282.379 503.968 284.299 502.872 285.897C502.065 287.189 501.611 288.667 501.555 290.186C501.551 290.46 501.625 290.729 501.768 290.963C501.911 291.197 502.117 291.387 502.364 291.51C503.017 291.78 503.727 291.888 504.432 291.825L504.444 291.825C504.633 291.817 504.819 291.868 504.976 291.973C505.133 292.077 505.252 292.228 505.316 292.404C506.097 294.569 506.98 296.733 507.922 298.846C508.829 300.966 509.888 303.018 511.092 304.987C511.666 305.943 512.364 306.82 513.167 307.596C513.988 308.296 514.981 308.767 516.046 308.961C518.296 309.315 520.601 309.031 522.695 308.139L522.74 308.121C522.78 308.105 522.823 308.1 522.866 308.106C523.477 308.199 524.068 308.391 524.616 308.675C525.149 308.944 525.65 309.272 526.109 309.652C526.556 310.036 526.964 310.461 527.328 310.923C527.686 311.382 528.009 311.866 528.294 312.373C528.301 312.385 528.305 312.399 528.307 312.413C528.309 312.427 528.308 312.442 528.304 312.455C528.301 312.469 528.294 312.482 528.285 312.493C528.277 312.504 528.266 312.514 528.253 312.521C528.228 312.534 528.2 312.537 528.173 312.531C528.145 312.524 528.122 312.508 528.106 312.485Z" fill="black"/>
    <path d="M502.24 292.448C502.017 294.172 501.784 295.881 501.602 297.593C501.432 299.306 501.266 301.015 501.213 302.723C501.128 304.422 501.199 306.125 501.425 307.81C501.537 308.645 501.763 309.461 502.097 310.236C502.411 311.03 502.933 311.728 503.61 312.255C502.809 311.847 502.148 311.212 501.711 310.431C501.278 309.649 500.957 308.811 500.758 307.941C500.384 306.218 500.24 304.453 500.329 302.692C500.401 300.948 500.603 299.211 500.932 297.496C501.24 295.783 501.678 294.096 502.24 292.448Z" fill="black"/>
    <path d="M501.714 255.972C501.489 255.583 501.346 255.152 501.295 254.706C501.243 254.261 501.284 253.809 501.414 253.379L501.594 252.734L501.876 252.136C501.975 251.939 502.064 251.733 502.171 251.54L502.542 250.998C503.035 250.275 503.594 249.597 504.212 248.975C504.837 248.372 505.503 247.817 506.157 247.24C508.913 245.173 511.865 243.377 514.971 241.876C516.521 241.146 518.087 240.449 519.654 239.755C521.237 239.11 522.831 238.488 524.428 237.876C526.03 237.295 527.655 236.793 529.272 236.26C530.09 236.016 530.878 235.739 531.753 235.5C532.6 235.274 533.459 235.093 534.326 234.957C537.768 234.395 541.29 234.537 544.675 235.375C548.047 236.217 551.163 237.854 553.76 240.147C556.322 242.475 558.433 245.248 559.988 248.329C561.551 251.398 562.745 254.637 563.546 257.981L563.562 258.071C564.406 262.661 565.891 267.111 567.975 271.294C569.003 273.381 570.193 275.385 571.535 277.289C572.855 279.196 574.346 280.983 575.988 282.626L578.587 285.013C579.522 285.824 580.401 286.696 581.218 287.625C582.889 289.456 584.268 291.53 585.306 293.774C587.459 298.21 587.997 303.247 586.83 308.032C586.823 308.058 586.806 308.081 586.782 308.096C586.759 308.11 586.731 308.115 586.703 308.11C586.676 308.105 586.652 308.089 586.636 308.067C586.62 308.044 586.613 308.017 586.617 307.989L586.619 307.977C586.926 305.641 586.831 303.27 586.338 300.966C585.891 298.683 585.081 296.486 583.938 294.455C583.376 293.446 582.752 292.473 582.067 291.542C581.365 290.623 580.603 289.751 579.787 288.93C578.99 288.091 578.136 287.306 577.231 286.581L574.454 284.198C570.887 280.782 567.992 276.739 565.915 272.274C564.881 270.064 564.006 267.784 563.297 265.45C562.561 263.116 562.026 260.724 561.697 258.3L561.713 258.389C561.059 255.136 560.084 251.954 558.801 248.89C557.516 245.822 555.63 243.037 553.252 240.696C552.029 239.564 550.668 238.589 549.2 237.793C547.721 237.014 546.141 236.444 544.503 236.099C541.225 235.451 537.843 235.53 534.599 236.332C533.796 236.517 533.002 236.743 532.223 237.01C531.473 237.271 530.677 237.612 529.885 237.911L525.112 239.682C523.545 240.308 521.974 240.923 520.394 241.516L515.748 243.496C512.688 244.857 509.738 246.449 506.924 248.258C506.267 248.754 505.586 249.235 504.948 249.758C504.322 250.287 503.739 250.864 503.204 251.483L502.804 251.949C502.688 252.113 502.591 252.288 502.482 252.458L502.163 252.976L501.943 253.531C501.627 254.268 501.609 255.097 501.893 255.847L501.903 255.869C501.914 255.894 501.916 255.922 501.907 255.948C501.899 255.973 501.881 255.995 501.857 256.008C501.833 256.021 501.805 256.024 501.778 256.018C501.752 256.011 501.729 255.995 501.714 255.972V255.972Z" fill="black"/>
    <path d="M504.418 276.909C505.93 275.831 507.579 274.958 509.323 274.311C510.195 273.978 511.09 273.712 512.002 273.513C512.92 273.283 513.875 273.239 514.81 273.385C513.917 273.576 513.041 273.839 512.191 274.171L509.638 275.129C507.929 275.766 506.224 276.422 504.418 276.909Z" fill="black"/>
    <path d="M509.2 282.966C509.544 282.954 509.869 282.81 510.108 282.565C510.348 282.32 510.481 281.992 510.481 281.651C510.481 281.309 510.348 280.981 510.108 280.736C509.869 280.491 509.544 280.347 509.2 280.335C508.856 280.347 508.53 280.491 508.291 280.736C508.052 280.981 507.918 281.309 507.918 281.651C507.918 281.992 508.052 282.32 508.291 282.565C508.53 282.81 508.856 282.954 509.2 282.966Z" fill="black"/>
    <path d="M507.06 298.903C507.725 298.924 508.391 298.905 509.054 298.848C509.701 298.79 510.338 298.712 510.971 298.593C511.602 298.471 512.233 298.331 512.865 298.159C513.498 297.99 514.135 297.803 514.81 297.635C514.307 298.109 513.733 298.501 513.108 298.8C512.481 299.102 511.817 299.323 511.132 299.455C509.751 299.75 508.31 299.554 507.06 298.903Z" fill="black"/>
    <path d="M502.138 432.397C498.852 431.197 495.473 430.263 492.035 429.603C488.651 428.92 485.174 428.81 481.753 429.278L480.493 429.489L479.263 429.82C478.447 430.046 477.645 430.32 476.862 430.64C475.295 431.309 473.794 432.117 472.376 433.056C470.931 433.996 469.56 435.071 467.946 436C466.33 436.899 464.591 437.562 462.784 437.966C460.989 438.388 459.145 438.572 457.301 438.514C455.37 438.516 453.466 438.058 451.75 437.179C451.277 436.892 450.855 436.53 450.501 436.106C450.184 435.721 449.989 435.439 449.712 435.123C449.191 434.529 448.589 434.011 447.922 433.584C446.456 432.739 444.909 432.043 443.302 431.505C441.569 430.96 439.907 430.212 438.351 429.278C437.563 428.75 436.871 428.094 436.303 427.338C436.024 426.981 435.773 426.64 435.505 426.325C435.373 426.161 435.234 426.021 435.093 425.862C434.939 425.681 434.761 425.5 434.631 425.318C433.587 423.883 432.628 422.388 431.761 420.842C430.883 419.321 430.009 417.806 429.171 416.264L429.427 416.451L427.177 415.964C426.399 415.833 425.636 415.626 424.899 415.346C423.421 414.734 422.123 413.761 421.128 412.517C420.582 411.894 420.208 411.143 420.04 410.336C419.977 409.91 420.004 409.476 420.121 409.062C420.238 408.647 420.442 408.262 420.719 407.931C421.25 407.31 421.901 406.8 422.632 406.429C423.364 406.059 424.162 405.836 424.981 405.773C425.772 405.728 426.566 405.761 427.352 405.87L429.642 406.033C431.17 406.129 432.699 406.2 434.228 406.247C437.285 406.34 440.345 406.318 443.384 406.13C446.402 405.975 449.4 405.558 452.345 404.885C453.768 404.55 455.147 404.049 456.453 403.393C457.065 403.077 457.634 402.685 458.147 402.227C458.663 401.759 459.132 401.241 459.546 400.682C459.892 400.294 460.108 399.808 460.164 399.292C460.146 399.181 460.128 399.138 459.984 399.015C459.769 398.879 459.535 398.775 459.289 398.709C457.922 398.434 456.516 398.415 455.142 398.652C454.44 398.75 453.747 398.901 453.068 399.105C452.791 399.186 452.524 399.297 452.272 399.437L452.037 399.589C451.934 399.66 451.83 399.716 451.726 399.775C451.523 399.888 451.313 399.988 451.097 400.076C450.296 400.393 449.458 400.609 448.602 400.719C448.191 400.777 447.782 400.818 447.375 400.846C446.903 400.888 446.428 400.87 445.96 400.794C444.971 400.628 444.056 400.169 443.334 399.478C442.647 398.795 442.149 397.948 441.887 397.019C441.429 395.237 441.671 393.349 442.563 391.737C443.005 390.839 443.705 390.09 444.574 389.583C444.864 389.431 445.178 389.33 445.503 389.285C445.693 389.26 445.885 389.259 446.076 389.28C446.175 389.291 446.273 389.309 446.369 389.333L446.493 389.366L446.507 389.364C446.73 389.386 446.955 389.371 447.174 389.322C448.58 389.001 449.95 388.544 451.266 387.957C451.957 387.666 452.646 387.361 453.332 387.043L454.359 386.561C454.728 386.386 455.102 386.222 455.483 386.068C457.006 385.462 458.607 385.071 460.239 384.907C461.853 384.762 463.479 384.818 465.078 385.073C466.643 385.285 468.191 385.596 469.715 386.004C472.785 386.806 475.703 388.095 478.358 389.82C479.675 390.695 480.907 391.689 482.04 392.788C483.134 393.786 484.303 394.699 485.538 395.519C490.807 398.565 496.889 399.94 502.969 399.46L502.979 399.459C503.007 399.457 503.034 399.467 503.056 399.485C503.077 399.503 503.091 399.529 503.094 399.557C503.096 399.585 503.088 399.612 503.071 399.634C503.053 399.656 503.028 399.671 503 399.674C496.784 400.62 490.427 399.545 484.879 396.609C483.522 395.796 482.231 394.877 481.02 393.862C477.665 390.907 473.611 388.84 469.236 387.853C467.783 387.506 466.31 387.252 464.825 387.091C463.383 386.897 461.922 386.884 460.477 387.053C459.051 387.219 457.655 387.58 456.329 388.124C455.999 388.262 455.675 388.41 455.352 388.567L454.303 389.076C453.602 389.41 452.892 389.735 452.175 390.05C450.699 390.738 449.151 391.261 447.559 391.611C447.025 391.722 446.473 391.723 445.939 391.613L445.812 391.584C445.77 391.574 445.804 391.583 445.796 391.581L445.807 391.583C445.813 391.584 445.814 391.582 445.805 391.583C445.749 391.594 445.695 391.614 445.646 391.642C445.202 391.94 444.846 392.351 444.617 392.831C444.011 393.917 443.835 395.188 444.123 396.396C444.274 396.942 444.555 397.443 444.944 397.858C445.33 398.237 445.823 398.492 446.357 398.59C446.648 398.642 446.944 398.654 447.238 398.628C447.597 398.609 447.953 398.578 448.303 398.535C448.973 398.46 449.632 398.304 450.264 398.07C450.405 398.016 450.542 397.953 450.675 397.881C450.738 397.85 450.8 397.814 450.859 397.776L451.109 397.62C451.524 397.382 451.967 397.196 452.429 397.067C453.224 396.839 454.035 396.673 454.856 396.572C456.521 396.313 458.221 396.377 459.862 396.76C460.356 396.902 460.82 397.129 461.235 397.431C461.494 397.629 461.709 397.877 461.869 398.16C462.029 398.443 462.129 398.755 462.164 399.077C462.208 399.633 462.099 400.191 461.848 400.689C461.658 401.1 461.42 401.487 461.139 401.843C460.633 402.504 460.058 403.111 459.424 403.652C458.78 404.197 458.07 404.661 457.309 405.031C455.855 405.718 454.323 406.231 452.746 406.56C449.685 407.185 446.569 407.511 443.443 407.531C440.344 407.596 437.255 407.492 434.178 407.297C432.639 407.197 431.103 407.072 429.569 406.92L427.272 406.676C426.537 406.563 425.793 406.521 425.05 406.551C424.332 406.596 423.631 406.78 422.986 407.094C422.34 407.408 421.764 407.845 421.289 408.38C421.068 408.631 420.904 408.927 420.807 409.246C420.711 409.566 420.685 409.902 420.73 410.233C420.871 410.924 421.188 411.568 421.649 412.104C422.567 413.263 423.776 414.163 425.155 414.711C425.856 414.969 426.581 415.157 427.319 415.274L429.581 415.711C429.632 415.721 429.681 415.741 429.724 415.771C429.767 415.801 429.803 415.84 429.83 415.885L429.837 415.898C431.529 418.923 433.43 421.829 435.526 424.595C435.658 424.764 435.798 424.887 435.932 425.035C436.089 425.196 436.266 425.361 436.416 425.532C436.731 425.87 437.014 426.223 437.289 426.544C437.8 427.17 438.414 427.706 439.106 428.127C440.603 428.932 442.19 429.561 443.834 430C445.589 430.501 447.283 431.191 448.886 432.057C449.712 432.559 450.461 433.173 451.113 433.883C451.424 434.216 451.744 434.643 451.992 434.924C452.212 435.163 452.466 435.368 452.746 435.532C454.184 436.229 455.767 436.585 457.367 436.57C459.044 436.622 460.721 436.467 462.359 436.107C463.993 435.762 465.567 435.182 467.032 434.388C468.469 433.577 469.91 432.539 471.423 431.593C472.956 430.629 474.574 429.806 476.258 429.136C477.114 428.825 477.988 428.565 478.876 428.358L480.206 428.058L481.556 427.886C485.134 427.525 488.748 427.793 492.232 428.677C495.665 429.539 499.009 430.717 502.221 432.196C502.247 432.208 502.267 432.228 502.278 432.254C502.289 432.279 502.29 432.308 502.28 432.334C502.27 432.36 502.25 432.381 502.225 432.393C502.199 432.405 502.17 432.407 502.144 432.398L502.138 432.397Z" fill="black"/>
    <path d="M429.501 416.08C431.629 415.899 433.757 415.814 435.885 415.744C438.013 415.664 440.141 415.653 442.27 415.641L445.462 415.664C446.559 415.664 447.65 415.813 448.706 416.108C450.728 416.82 452.699 417.666 454.606 418.64C453.578 418.348 452.572 418.004 451.554 417.687C450.573 417.313 449.567 417.004 448.544 416.763C447.53 416.556 446.496 416.466 445.462 416.495L442.27 416.518C440.141 416.507 438.013 416.496 435.885 416.416C433.757 416.345 431.629 416.261 429.501 416.08Z" fill="black"/>
    <path d="M430.583 417.967C432.013 419.06 433.381 420.227 434.739 421.406C435.441 421.972 436.065 422.639 436.749 423.111C437.439 423.603 438.212 423.969 439.032 424.191C439.823 424.426 440.737 424.462 441.638 424.629C442.537 424.775 443.427 424.968 444.305 425.206C446.101 425.58 447.771 426.405 449.154 427.602C448.411 427.111 447.595 426.739 446.736 426.498C445.889 426.229 445.026 426.017 444.151 425.863C443.274 425.713 442.398 425.556 441.513 425.45C440.599 425.363 439.692 425.225 438.794 425.036C437.876 424.776 437.015 424.349 436.254 423.778C435.553 423.19 434.89 422.559 434.268 421.889C433.012 420.613 431.766 419.327 430.583 417.967Z" fill="black"/>
    <path d="M410.47 389.912C409.765 388.495 408.904 387.16 407.902 385.932L408.071 386.041C406.394 385.78 404.832 385.036 403.577 383.903C402.923 383.247 402.52 382.386 402.438 381.467C402.397 381.011 402.418 380.552 402.499 380.101C402.61 379.672 402.746 379.249 402.905 378.834C403.67 377.218 405.017 375.944 406.682 375.264C407.515 374.871 408.421 374.656 409.343 374.632C410.336 374.626 411.306 374.928 412.117 375.496L410.679 375.952C410.899 375.361 411.2 374.804 411.573 374.295C411.927 373.797 412.342 373.343 412.807 372.945C413.748 372.148 414.864 371.582 416.066 371.292C417.227 371.016 418.429 370.954 419.612 371.11L420.457 371.217C420.787 371.265 421.11 371.345 421.424 371.455C422.008 371.652 422.567 371.914 423.092 372.235C425.072 373.505 426.656 375.297 427.665 377.41C428.656 379.411 429.376 381.532 429.809 383.719L427.747 383.844C427.926 382.453 428.348 381.103 428.996 379.856C429.641 378.571 430.602 377.467 431.791 376.648C433.005 375.86 434.418 375.425 435.869 375.394C436.216 375.38 436.563 375.39 436.908 375.425L437.424 375.457C437.627 375.466 437.827 375.498 438.022 375.554C438.719 375.759 439.378 376.078 439.971 376.497C442.1 378.155 443.673 380.412 444.485 382.973C445.343 385.396 445.899 387.915 446.141 390.473C445.573 388.007 444.759 385.603 443.712 383.297C442.757 381.048 441.186 379.11 439.176 377.703C438.702 377.414 438.186 377.197 437.647 377.058C437.532 377.03 437.413 377.019 437.294 377.025L436.849 377.021C435.425 376.95 434.017 377.349 432.846 378.156C431.969 378.879 431.25 379.772 430.731 380.779C430.212 381.786 429.905 382.888 429.828 384.016L429.827 384.023C429.8 384.268 429.687 384.495 429.508 384.664C429.328 384.834 429.094 384.934 428.847 384.948C428.599 384.962 428.355 384.889 428.157 384.741C427.959 384.594 427.82 384.381 427.766 384.141C427.348 382.148 426.671 380.218 425.753 378.397C424.895 376.647 423.591 375.149 421.969 374.054C421.583 373.81 421.17 373.61 420.738 373.458C420.546 373.386 420.348 373.334 420.146 373.302L419.395 373.198C418.445 373.062 417.479 373.093 416.54 373.29C415.641 373.476 414.798 373.869 414.08 374.438C413.379 375.003 412.822 375.725 412.455 376.544L412.411 376.648C412.317 376.867 412.139 377.04 411.917 377.128C411.694 377.217 411.445 377.215 411.224 377.122C411.15 377.09 411.081 377.049 411.017 377C410.479 376.638 409.854 376.425 409.205 376.385C408.557 376.344 407.909 376.477 407.33 376.769C405.981 377.242 404.85 378.184 404.147 379.42C403.783 379.999 403.606 380.675 403.641 381.357C403.675 382.038 403.919 382.693 404.34 383.233C405.375 384.339 406.709 385.127 408.183 385.503L408.219 385.514C408.274 385.53 408.32 385.565 408.352 385.612C409.252 386.943 409.965 388.389 410.47 389.912Z" fill="black"/>
    <path d="M403.096 389.175C402.511 387.979 401.471 387.061 400.204 386.624C398.974 386.274 397.658 386.372 396.495 386.9C395.935 387.072 395.432 387.389 395.038 387.82C394.645 388.251 394.377 388.78 394.261 389.349C394.208 390.542 394.535 391.721 395.197 392.718C395.863 393.82 396.655 394.841 397.558 395.762C397.777 396.001 398.008 396.219 398.236 396.441L398.977 397.084C399.506 397.537 400.017 397.999 400.523 398.464C402.55 400.324 404.445 402.277 406.334 404.26C406.476 404.408 406.57 404.596 406.603 404.798L406.614 404.867C406.738 405.497 406.945 406.108 407.231 406.685C407.829 407.923 408.68 409.025 409.729 409.92C410.262 410.399 410.795 410.719 411.508 411.262C412.814 412.278 413.916 413.529 414.756 414.949C415.603 416.344 416.23 417.858 416.616 419.441L416.566 419.286C417.064 420.653 417.999 421.822 419.229 422.614C420.543 423.374 422.034 423.78 423.555 423.792C425.15 423.826 426.743 423.663 428.297 423.305C429.887 422.962 431.446 422.492 432.96 421.9C431.538 422.728 430.036 423.412 428.476 423.94C426.891 424.491 425.238 424.826 423.563 424.937C421.802 425.062 420.039 424.714 418.461 423.929C417.663 423.49 416.946 422.92 416.341 422.243C415.756 421.56 415.269 420.8 414.892 419.986L414.872 419.936L414.842 419.831C414.438 418.474 413.841 417.181 413.069 415.991C412.305 414.815 411.343 413.777 410.225 412.924C409.723 412.542 408.944 412.064 408.335 411.527C407.693 410.992 407.11 410.392 406.594 409.737C406.068 409.08 405.619 408.365 405.258 407.606C404.875 406.814 404.611 405.97 404.473 405.103L404.752 405.709C402.923 403.736 401.033 401.79 399.14 399.89C398.662 399.419 398.181 398.953 397.693 398.505L396.92 397.784C396.669 397.524 396.416 397.266 396.186 396.996C395.241 395.924 394.428 394.744 393.767 393.48C392.995 392.154 392.703 390.606 392.939 389.092C393.025 388.694 393.176 388.313 393.386 387.964C393.612 387.635 393.868 387.326 394.151 387.044L395.101 386.396L396.12 385.981C397.514 385.491 399.042 385.535 400.405 386.103C401.042 386.404 401.611 386.832 402.074 387.361C402.537 387.889 402.885 388.507 403.096 389.175Z" fill="black"/>
    <path d="M405.543 404.985C405.21 403.785 405.233 402.516 405.61 401.329C405.791 400.71 406.112 400.14 406.549 399.662C406.763 399.417 407.027 399.219 407.324 399.083C407.62 398.946 407.942 398.873 408.269 398.868C407.784 399.169 407.381 399.585 407.096 400.078C406.82 400.555 406.604 401.065 406.453 401.594C406.103 402.666 405.89 403.801 405.543 404.985Z" fill="black"/>
    <path d="M408.126 385.774C408.877 385.591 409.49 385.464 410.142 385.337C410.823 385.185 411.517 385.096 412.214 385.07C411.741 385.665 411.063 386.066 410.31 386.197C409.937 386.284 409.549 386.292 409.172 386.219C408.795 386.146 408.439 385.994 408.126 385.774Z" fill="black"/>
    <path d="M412.115 376.246C412.102 377.187 412.227 378.126 412.486 379.031C412.714 379.935 413.201 380.755 413.887 381.393C414.249 381.696 414.671 381.923 415.125 382.059C415.579 382.195 416.056 382.237 416.528 382.184C417.018 382.145 417.504 382.065 417.981 381.946L419.387 381.443L418.024 382.075C417.546 382.241 417.054 382.368 416.555 382.454C416.037 382.555 415.504 382.552 414.988 382.443C414.472 382.334 413.983 382.122 413.552 381.821C412.706 381.172 412.067 380.295 411.711 379.296C411.332 378.321 411.1 377.297 411.022 376.255C411.016 376.183 411.024 376.111 411.045 376.043C411.067 375.974 411.102 375.91 411.149 375.855C411.196 375.801 411.253 375.755 411.318 375.723C411.382 375.69 411.453 375.67 411.525 375.664C411.597 375.659 411.67 375.668 411.739 375.69C411.808 375.713 411.871 375.748 411.926 375.796C411.981 375.843 412.026 375.9 412.058 375.965C412.09 376.029 412.109 376.099 412.114 376.171C412.115 376.187 412.116 376.204 412.116 376.22L412.115 376.246Z" fill="black"/>
    <path d="M416.518 382.368C417.276 383.513 417.946 384.714 418.522 385.959C419.167 387.214 419.608 388.561 419.829 389.951C419.891 390.21 420.015 390.449 420.191 390.65C420.367 390.851 420.589 391.006 420.839 391.103C421.411 391.388 422.024 391.582 422.656 391.68C423.302 391.797 423.964 391.802 424.612 391.696C425.28 391.64 425.901 391.33 426.345 390.831C426.178 391.145 425.947 391.422 425.666 391.642C425.385 391.863 425.062 392.024 424.715 392.114C424.024 392.316 423.303 392.397 422.584 392.35C421.85 392.318 421.129 392.146 420.461 391.844C420.071 391.692 419.727 391.444 419.462 391.123C419.197 390.801 419.019 390.418 418.947 390.009C418.727 388.711 418.374 387.439 417.895 386.212L416.518 382.368Z" fill="black"/>
    <path d="M429.862 383.756C430.104 385.448 430.646 387.085 431.462 388.589C431.667 388.949 431.9 389.293 432.158 389.617C432.486 390.007 432.776 390.427 433.025 390.871C433.276 391.321 433.476 391.796 433.623 392.288C433.773 392.807 433.844 393.238 433.948 393.667C434.001 394.049 434.106 394.423 434.262 394.777C434.476 395.096 434.745 395.374 435.058 395.599C435.366 395.838 435.719 396.015 436.097 396.118C436.475 396.221 436.869 396.248 437.258 396.199C438.077 396.031 438.813 395.59 439.345 394.95C439.943 394.292 440.453 393.56 440.86 392.771L440.838 392.84C441.11 391.565 441.292 390.272 441.381 388.971C441.5 387.665 441.412 386.349 441.121 385.07C441.508 386.336 441.693 387.655 441.67 388.979C441.676 390.306 441.587 391.632 441.404 392.946C441.402 392.966 441.396 392.985 441.387 393.004L441.381 393.016C441.007 393.89 440.519 394.712 439.929 395.46C439.322 396.286 438.449 396.882 437.454 397.15C436.93 397.258 436.39 397.263 435.865 397.163C435.34 397.062 434.839 396.86 434.394 396.566C433.935 396.283 433.531 395.919 433.204 395.493C433.025 395.257 432.894 394.988 432.82 394.702L432.615 394.025C432.43 393.194 432.109 392.399 431.664 391.671C431.438 391.329 431.178 391.009 430.89 390.715C430.546 390.344 430.232 389.946 429.95 389.526C428.878 387.869 428.118 386.033 427.705 384.108C427.673 383.969 427.669 383.825 427.693 383.684C427.717 383.544 427.768 383.409 427.844 383.289C427.921 383.168 428.02 383.063 428.137 382.981C428.254 382.898 428.387 382.839 428.527 382.807C428.667 382.775 428.812 382.771 428.953 382.794C429.095 382.818 429.231 382.869 429.352 382.945C429.474 383.02 429.58 383.119 429.663 383.235C429.747 383.351 429.806 383.482 429.838 383.621C429.844 383.647 429.849 383.673 429.853 383.699L429.862 383.756Z" fill="black"/>
    <path d="M427.845 402.744C427.889 402.744 427.922 402.754 427.965 402.754L428.063 402.82L427.845 402.744Z" fill="black"/>
    <path d="M450.019 401.281C431.244 398.452 413.551 391.236 409.157 389.361C408.396 389.03 407.582 388.836 406.753 388.787C402.753 388.581 401.376 389.87 401.005 391.203C400.838 391.847 400.885 392.526 401.139 393.141C401.393 393.756 401.84 394.274 402.414 394.617L421.944 406.796L421.955 406.786C422.938 405.613 424.078 404.577 425.342 403.708C424.881 404.671 424.313 405.579 423.649 406.417C425.467 405.922 427.386 405.93 429.2 406.439C451.812 408.563 457.494 403.881 457.494 403.881C455.068 401.639 450.019 401.281 450.019 401.281ZM433.528 399.428L438.118 402.744L427.594 401.183L418.119 394.887L433.528 399.428ZM439.429 405.052C435.517 404.694 431.615 404.25 427.714 403.816C427.637 403.803 427.564 403.777 427.495 403.741C423.889 401.584 420.293 399.406 416.731 397.174L411.387 393.804C409.638 392.644 407.857 391.528 406.119 390.336C407.988 391.312 409.824 392.341 411.671 393.338L417.168 396.448C420.796 398.496 424.381 400.62 427.965 402.754C431.812 403.221 435.681 403.697 439.528 404.239C443.407 404.781 447.298 405.344 451.167 406.016C447.243 405.778 443.331 405.42 439.429 405.052H439.429Z" fill="black"/>
    <path d="M428.064 402.82L427.845 402.744C427.889 402.744 427.922 402.754 427.965 402.754L428.064 402.82Z" fill="white"/>
    <path d="M294.931 247.372C294.931 247.372 292.125 245.702 289.505 248.67C289.505 248.67 284.828 242.081 264.998 247.787C264.998 247.787 267.617 252.751 269.488 252.751C271.359 252.751 265.933 261.284 260.882 260.913C260.882 260.913 252.277 273.342 258.824 285.399C265.278 297.283 269.914 301.058 276.316 293.35C276.512 293.111 276.731 292.891 276.97 292.693C278.811 291.188 286.961 284.929 289.849 289.596C290.464 290.633 290.64 291.869 290.339 293.034C289.02 298.509 282.855 318.676 264.998 310.627C264.998 310.627 244.188 302.89 249.096 284.558C249.621 282.694 250.382 280.903 251.362 279.228C252.306 277.518 252.888 275.634 253.072 273.693C253.256 271.751 253.038 269.793 252.431 267.938C251.679 265.293 249.982 263.01 247.657 261.515C245.403 260.121 242.431 259.498 240.18 263.396C239.249 265.018 238.758 266.852 238.755 268.718C238.751 270.427 239.071 272.522 240.491 273.527L238.755 276.866C237.811 274.962 236.604 273.197 235.168 271.623C232.765 269.209 231.22 266.083 230.77 262.72C230.134 257.385 230.9 249.42 237.31 240.137C237.31 240.137 245.916 223.071 262.005 223.442C278.094 223.813 291.938 228.079 294.931 247.372Z" fill="black"/>
    <path d="M267.991 269.632C270.786 268.998 273.658 268.763 276.519 268.935C277.96 269.006 279.391 269.221 280.789 269.577C282.215 269.881 283.541 270.538 284.642 271.487C283.371 270.901 282.013 270.522 280.621 270.364C279.246 270.168 277.858 270.025 276.458 269.963C273.661 269.791 270.848 269.778 267.991 269.632Z" fill="black"/>
    <path d="M294.931 269.367C293.908 269.675 292.961 270.193 292.151 270.886C291.767 271.2 291.454 271.59 291.233 272.032C291.012 272.474 290.887 272.957 290.867 273.45C290.943 274.462 291.21 275.45 291.655 276.362L292.879 279.345C293.791 281.362 294.322 283.53 294.443 285.738C294.441 286.319 294.334 286.896 294.125 287.44C293.901 287.99 293.535 288.473 293.064 288.839C292.106 289.437 290.976 289.703 289.849 289.596C290.905 289.507 291.911 289.108 292.738 288.45C293.077 288.091 293.333 287.663 293.488 287.196C293.642 286.728 293.691 286.233 293.632 285.744C293.551 284.711 293.34 283.692 293.003 282.712C292.688 281.708 292.312 280.713 291.912 279.721C291.527 278.722 291.112 277.729 290.737 276.706C290.558 276.19 290.376 275.675 290.236 275.131C290.061 274.568 290.002 273.976 290.062 273.39C290.124 272.807 290.316 272.245 290.622 271.744C290.929 271.243 291.344 270.816 291.836 270.492C292.763 269.878 293.824 269.492 294.931 269.367Z" fill="black"/>
    <path d="M294.931 247.372C295.281 249.451 295.542 251.541 295.713 253.643C295.908 255.741 296.028 257.846 296.074 259.956C296.107 262.067 296.075 264.181 295.909 266.297C295.811 268.454 295.326 270.576 294.474 272.563C294.462 272.588 294.446 272.611 294.427 272.631C293.771 273.332 293.154 274.069 292.581 274.839C292.297 275.224 292.044 275.631 291.825 276.057C291.581 276.471 291.483 276.954 291.547 277.429C291.397 276.951 291.424 276.435 291.624 275.975C291.796 275.511 292.005 275.061 292.25 274.63C292.738 273.771 293.303 272.957 293.937 272.197L293.891 272.265C294.253 271.316 294.494 270.326 294.609 269.317C294.772 268.3 294.837 267.261 294.914 266.226C295.038 264.148 295.06 262.057 295.072 259.966C295.071 255.779 294.979 251.585 294.931 247.372Z" fill="black"/>
    <path d="M283.706 283.73C283.509 284.132 283.349 284.552 283.23 284.984C283.108 285.383 283.081 285.804 283.152 286.215C283.21 286.622 283.389 287.003 283.667 287.308C283.961 287.645 284.287 287.953 284.642 288.226C284.415 288.16 284.192 288.081 283.975 287.989C283.763 287.874 283.563 287.737 283.379 287.582C282.993 287.251 282.732 286.799 282.64 286.301C282.574 285.807 282.649 285.306 282.855 284.852C283.047 284.417 283.338 284.033 283.706 283.73Z" fill="black"/>
    <path d="M240.491 273.527C241.138 274.333 241.655 275.234 242.022 276.198C242.219 276.69 242.361 277.202 242.446 277.724C242.492 277.998 242.511 278.276 242.501 278.554L242.496 278.767L242.508 278.883C242.503 278.958 242.52 279.034 242.556 279.1C242.717 279.439 243 279.706 243.35 279.848C243.766 280.059 244.203 280.223 244.655 280.338C245.616 280.595 246.605 280.737 247.6 280.762C246.617 281.144 245.552 281.27 244.506 281.129C243.96 281.074 243.426 280.938 242.92 280.726C242.623 280.611 242.351 280.44 242.121 280.221C241.891 280.002 241.707 279.74 241.579 279.45C241.512 279.287 241.479 279.112 241.483 278.936L241.479 278.675L241.487 278.513C241.499 278.289 241.494 278.064 241.472 277.84C241.431 277.365 241.356 276.893 241.248 276.428C241.036 275.475 240.757 274.517 240.491 273.527Z" fill="black"/>
    <path d="M238.755 276.866C238.338 278.367 237.749 279.815 237 281.183C236.268 282.571 235.384 283.876 234.363 285.072C233.343 286.291 232.132 287.341 230.777 288.181C229.419 289.016 227.864 289.485 226.267 289.541C227.729 289.106 229.102 288.419 230.325 287.513C231.521 286.601 232.611 285.558 233.572 284.404C234.56 283.252 235.473 282.039 236.307 280.773C237.145 279.5 237.978 278.21 238.755 276.866Z" fill="black"/>
    <path d="M252.464 320.273C253.646 319.759 254.764 319.111 255.795 318.34C256.818 317.583 257.788 316.758 258.699 315.872C259.639 315.011 260.481 314.05 261.356 313.108L262.63 311.65C263.045 311.152 263.459 310.651 263.915 310.17C263.654 310.772 263.351 311.353 263.049 311.938C262.707 312.496 262.371 313.063 261.995 313.604C261.236 314.687 260.374 315.695 259.419 316.614C258.461 317.54 257.39 318.346 256.233 319.013C255.086 319.704 253.799 320.134 252.464 320.273Z" fill="black"/>
    <path d="M233.748 284.738C232.817 283.37 231.665 282.163 230.339 281.166C230.063 280.924 229.729 280.757 229.369 280.681C229.008 280.605 228.634 280.623 228.283 280.733C227.663 281.151 227.217 281.779 227.031 282.5C226.775 283.268 226.591 284.058 226.48 284.859C226.425 285.258 226.376 285.673 226.339 286.056C226.341 286.421 226.374 286.85 226.411 287.249C226.572 288.885 226.877 290.503 227.325 292.086C228.148 295.306 229.427 298.395 231.124 301.26C232.843 304.123 234.899 306.774 237.25 309.156C238.429 310.338 239.654 311.476 240.897 312.585C242.188 313.642 243.422 314.776 244.766 315.746C245.414 316.265 246.129 316.687 246.806 317.162C247.523 317.571 248.211 318.035 248.958 318.382C250.401 319.159 251.936 319.756 253.527 320.157C256.705 320.993 260.082 320.642 263.015 319.17C265.963 317.609 268.44 315.299 270.19 312.476C270.196 312.464 270.207 312.455 270.221 312.451C270.234 312.447 270.248 312.448 270.26 312.454C270.272 312.461 270.28 312.472 270.284 312.485C270.288 312.497 270.288 312.511 270.283 312.523C268.76 315.588 266.368 318.145 263.399 319.88C261.879 320.735 260.206 321.291 258.473 321.518C256.735 321.721 254.973 321.61 253.275 321.19C251.589 320.793 249.965 320.167 248.451 319.331C247.678 318.95 246.976 318.457 246.243 318.017C245.554 317.514 244.826 317.061 244.173 316.516C242.804 315.497 241.605 314.306 240.339 313.187C239.692 312.642 239.145 311.991 238.552 311.392C237.98 310.77 237.362 310.195 236.831 309.537C234.616 306.999 232.605 304.293 230.815 301.443C228.993 298.594 227.542 295.528 226.496 292.318C225.985 290.694 225.652 289.02 225.501 287.325C225.473 286.891 225.447 286.486 225.457 286.015C225.506 285.569 225.567 285.154 225.636 284.726C225.774 283.874 225.99 283.036 226.283 282.224C226.415 281.775 226.636 281.357 226.932 280.994C227.229 280.631 227.595 280.33 228.01 280.109C228.477 279.928 228.993 279.917 229.467 280.08C229.897 280.226 230.299 280.444 230.655 280.725C231.963 281.83 233.043 283.174 233.837 284.684C233.84 284.69 233.842 284.697 233.843 284.703C233.844 284.71 233.843 284.717 233.842 284.723C233.84 284.73 233.837 284.736 233.833 284.741C233.828 284.747 233.823 284.751 233.817 284.754C233.806 284.76 233.792 284.762 233.779 284.759C233.767 284.756 233.755 284.748 233.748 284.738Z" fill="black"/>
    <path d="M236.908 280.369C235.238 279.349 233.375 278.679 231.434 278.4C229.521 278.054 227.547 278.405 225.875 279.388C225.086 279.931 224.423 280.634 223.929 281.451L222.232 283.868C221.109 285.511 219.851 287.059 218.471 288.498C218.439 288.529 218.401 288.553 218.358 288.569C218.316 288.585 218.271 288.592 218.226 288.59L218.201 288.588C211.209 288.177 204.194 288.013 197.197 288.06C193.698 288.089 190.203 288.228 186.727 288.498C183.279 288.688 179.864 289.275 176.553 290.25L176.495 290.265L176.414 290.282C174.582 290.747 172.836 291.501 171.244 292.514C170.416 293.011 169.619 293.558 168.858 294.152L167.704 295.032C167.332 295.341 166.981 295.678 166.619 295.999C163.73 298.617 161.164 301.564 158.973 304.78C154.576 311.264 150.982 318.25 148.269 325.586C147.598 327.427 146.864 329.244 146.245 331.103L144.474 336.712C143.875 338.558 143.339 340.516 142.641 342.386C141.963 344.274 141.168 346.1 140.408 347.913L138.068 353.362L136.849 356.076C136.434 357.016 135.971 357.933 135.462 358.826C135.359 358.992 135.241 359.15 135.111 359.297C135.185 359.3 135.192 359.131 135.196 359.199C135.184 359.305 135.189 359.412 135.209 359.516C135.287 359.9 135.421 360.27 135.605 360.616C136.014 361.389 136.559 362.083 137.215 362.665C138.555 363.859 140.231 364.619 142.018 364.842L141.316 366.533C140.213 365.68 139.17 364.754 138.193 363.761C137.657 363.227 137.19 362.628 136.802 361.98C136.685 361.769 136.592 361.546 136.525 361.315C136.49 361.162 136.466 361.007 136.454 360.852C136.454 360.647 136.489 360.444 136.558 360.252C136.636 360.045 136.762 359.859 136.926 359.708C137.002 359.638 137.081 359.572 137.165 359.511C137.237 359.469 137.308 359.437 137.381 359.402C137.627 359.29 137.89 359.217 138.159 359.187C138.928 359.133 139.701 359.187 140.454 359.348C141.158 359.475 141.832 359.644 142.504 359.819L144.505 360.45L146.441 361.22C151.498 363.482 155.983 366.486 160.652 369.129C165.29 371.815 170.087 374.221 175.017 376.336C179.964 378.424 185.019 380.249 190.162 381.803L190.168 381.804C190.309 381.848 190.431 381.937 190.514 382.059C190.596 382.18 190.635 382.325 190.622 382.471C190.177 387.454 189.997 392.457 190.082 397.458C190.117 399.945 190.331 402.427 190.723 404.883C190.91 406.082 191.257 407.251 191.756 408.358C191.988 408.857 192.336 409.294 192.77 409.634C192.882 409.682 192.989 409.734 193.097 409.791C193.211 409.825 193.332 409.823 193.448 409.85C193.709 409.881 194.066 409.862 194.371 409.87L224.773 409.953C234.907 410.002 245.041 409.948 255.175 409.936L285.577 409.834L285.227 409.988C287.297 407.826 289.562 405.857 291.995 404.105C294.423 402.328 297.06 400.851 299.848 399.706C302.665 398.53 305.693 397.928 308.75 397.934C310.301 397.962 311.842 398.183 313.338 398.594L317.55 399.994C318.957 400.447 320.369 400.888 321.783 401.297C323.143 401.751 324.551 402.053 325.979 402.195C327.565 402.372 329.098 402.866 330.487 403.646C331.217 404.032 331.877 404.538 332.44 405.141C332.754 405.475 332.998 405.867 333.156 406.296C333.314 406.725 333.383 407.181 333.359 407.637C333.399 408.414 333.372 409.193 333.28 409.965C333.183 410.862 332.801 411.705 332.189 412.373C331.529 413.018 330.661 413.411 329.737 413.482C328.924 413.568 328.104 413.543 327.298 413.406C326.53 413.286 325.771 413.115 325.027 412.893L322.901 412.256C322.222 412.063 321.531 411.913 320.832 411.808C320.253 411.69 319.656 411.696 319.08 411.825L319.29 410.39C322.102 412.343 325.405 413.486 328.832 413.692C330.564 413.783 332.301 413.684 334.011 413.397C335.777 413.158 337.529 412.864 339.309 412.57C340.205 412.429 341.095 412.274 342.08 412.212C342.62 412.167 343.163 412.199 343.694 412.306C344.335 412.442 344.914 412.781 345.345 413.271C345.715 413.708 345.999 414.209 346.181 414.75C346.703 416.203 346.781 417.776 346.405 419.272C346.14 420.265 345.669 421.192 345.022 421.995C344.375 422.797 343.565 423.456 342.646 423.93C340.923 424.806 339.048 425.352 337.12 425.537L337.962 424.908C337.512 425.927 336.953 426.895 336.296 427.796C335.643 428.705 334.882 429.534 334.03 430.265C333.135 431.008 332.117 431.592 331.021 431.99C329.894 432.367 328.701 432.517 327.515 432.432L328.413 432.065C326.587 434.175 324.795 436.246 322.739 438.241C322.476 438.489 322.198 438.739 321.889 438.986C321.571 439.226 321.238 439.446 320.892 439.644C320.243 440.007 319.569 440.323 318.874 440.59C317.519 441.112 316.118 441.51 314.69 441.779C311.862 442.302 308.974 442.434 306.109 442.171C305.395 442.121 304.689 442.006 303.979 441.926L301.874 441.561L299.902 441.241L297.894 441.033C292.428 440.754 286.948 440.93 281.511 441.558C276.037 442.108 270.579 442.927 265.147 443.881C262.452 444.355 259.783 444.984 257.064 445.577C254.356 446.174 251.639 446.755 248.915 447.3C243.465 448.38 237.99 449.363 232.483 450.145C221.472 451.766 210.361 452.637 199.23 452.752C197.839 452.758 196.448 452.809 195.057 452.777L190.883 452.684C188.1 452.664 185.323 452.468 182.545 452.304C179.764 452.187 176.998 451.868 174.229 451.6C172.838 451.448 171.475 451.363 170.057 451.145C168.652 450.929 167.262 450.632 165.892 450.254C160.362 448.774 155.345 445.822 151.386 441.717C147.421 437.589 144.914 432.298 144.241 426.637C143.022 415.665 142.533 404.677 142.256 393.685C142.014 382.692 141.983 371.701 142.165 360.712C142.165 360.683 142.177 360.655 142.197 360.635C142.218 360.615 142.246 360.604 142.275 360.604C142.304 360.604 142.332 360.616 142.352 360.637C142.372 360.657 142.384 360.685 142.383 360.714C142.43 371.699 142.685 382.68 143.149 393.656C143.639 404.619 144.244 415.603 145.618 426.459C146.324 431.796 148.76 436.762 152.558 440.607C156.344 444.454 161.116 447.204 166.361 448.56C167.665 448.908 168.987 449.18 170.323 449.373C171.644 449.567 173.051 449.646 174.414 449.783C177.161 450.025 179.904 450.318 182.662 450.411C185.416 450.549 188.168 450.721 190.928 450.716L195.064 450.774C196.443 450.794 197.822 450.731 199.201 450.714L203.336 450.63L207.468 450.418C210.224 450.31 212.973 450.071 215.722 449.851C218.475 449.674 221.212 449.31 223.957 449.046C226.694 448.708 229.433 448.373 232.162 447.967C237.623 447.182 243.054 446.196 248.467 445.114C251.173 444.567 253.871 443.985 256.571 443.385C259.261 442.793 261.984 442.146 264.744 441.655C270.221 440.683 275.725 439.846 281.275 439.278C286.85 438.623 292.472 438.459 298.076 438.788L300.2 439.018L302.326 439.374L304.313 439.728C304.978 439.805 305.641 439.918 306.308 439.967C308.967 440.225 311.649 440.116 314.278 439.644C315.574 439.407 316.846 439.054 318.077 438.587C318.675 438.361 319.256 438.093 319.816 437.785C320.07 437.641 320.316 437.482 320.552 437.309C320.782 437.125 321.019 436.916 321.26 436.691C323.175 434.854 325.013 432.762 326.802 430.712C326.906 430.592 327.036 430.497 327.182 430.433C327.329 430.369 327.488 430.339 327.647 430.344L327.7 430.346C328.591 430.41 329.486 430.302 330.334 430.026C331.192 429.714 331.99 429.26 332.694 428.682C333.416 428.065 334.062 427.365 334.619 426.598C335.183 425.83 335.667 425.007 336.061 424.142L336.064 424.136C336.137 423.969 336.254 423.824 336.401 423.715C336.548 423.606 336.721 423.537 336.903 423.513C338.557 423.364 340.169 422.911 341.655 422.177C342.339 421.84 342.943 421.363 343.428 420.778C343.912 420.193 344.266 419.512 344.466 418.781C344.663 418.044 344.705 417.274 344.588 416.52C344.515 415.823 344.269 415.155 343.871 414.575C343.715 414.38 343.492 414.249 343.245 414.206C342.895 414.139 342.537 414.12 342.181 414.148C341.373 414.19 340.488 414.328 339.611 414.458C337.845 414.73 336.053 415.012 334.258 415.237C332.421 415.521 330.558 415.605 328.702 415.487C324.917 415.225 321.283 413.913 318.215 411.7L318.198 411.688C318.078 411.6 317.984 411.481 317.927 411.343C317.871 411.206 317.853 411.056 317.876 410.909C317.9 410.762 317.963 410.625 318.06 410.511C318.157 410.398 318.283 410.313 318.425 410.266C319.287 410.01 320.2 409.974 321.08 410.16C321.848 410.284 322.608 410.456 323.354 410.676L325.485 411.338C326.16 411.548 326.849 411.712 327.546 411.828C328.89 412.056 330.353 412.031 331.072 411.287C331.83 410.554 331.877 409.105 331.842 407.657C331.848 407.492 331.841 407.327 331.822 407.163C331.82 407.044 331.794 406.925 331.744 406.816C331.647 406.556 331.499 406.317 331.31 406.112C330.864 405.631 330.341 405.227 329.762 404.915C328.564 404.229 327.243 403.783 325.872 403.604C324.345 403.44 322.842 403.106 321.391 402.608C319.959 402.178 318.543 401.718 317.131 401.248L312.911 399.797C311.546 399.416 310.138 399.203 308.72 399.163C305.825 399.131 302.952 399.674 300.272 400.759C294.857 403.032 289.973 406.388 285.927 410.619L285.912 410.634C285.868 410.678 285.816 410.713 285.758 410.737C285.701 410.761 285.639 410.773 285.576 410.773L255.177 410.671C245.044 410.659 234.911 410.604 224.778 410.654L194.38 410.736C194.051 410.731 193.772 410.756 193.404 410.727C193.208 410.71 193.013 410.678 192.821 410.632L192.289 410.387C191.709 409.968 191.243 409.414 190.932 408.774C190.375 407.594 189.982 406.345 189.762 405.061C189.326 402.559 189.072 400.03 189 397.492C188.844 392.446 188.956 387.396 189.336 382.361L189.796 383.03C184.582 381.532 179.452 379.757 174.429 377.713C169.413 375.639 164.527 373.268 159.798 370.613C155.047 368.025 150.526 365.019 145.708 362.897L143.881 362.179L142.02 361.6C141.385 361.438 140.748 361.281 140.122 361.172C139.554 361.051 138.972 361.005 138.391 361.035C138.314 361.054 138.178 361.071 138.197 361.081L138.184 361.078C138.204 361.073 138.221 361.063 138.234 361.048C138.243 361.018 138.307 360.975 138.318 360.911C138.351 360.654 138.317 360.895 138.461 361.091C138.774 361.589 139.143 362.05 139.563 362.463C140.478 363.383 141.454 364.241 142.484 365.033L142.493 365.039C142.657 365.168 142.774 365.346 142.827 365.546C142.879 365.747 142.864 365.959 142.783 366.15C142.702 366.341 142.561 366.501 142.38 366.604C142.199 366.708 141.988 366.75 141.781 366.724C139.598 366.459 137.549 365.537 135.909 364.084C135.079 363.351 134.389 362.476 133.872 361.5C133.59 360.975 133.39 360.411 133.278 359.826C133.206 359.446 133.216 359.056 133.308 358.68C133.384 358.401 133.524 358.143 133.719 357.928C133.741 357.868 133.726 357.923 133.797 357.797C134.226 357.062 134.661 356.132 135.071 355.264L136.29 352.587L138.648 347.177C139.421 345.358 140.21 343.569 140.874 341.75C141.565 339.927 142.079 338.081 142.705 336.182L144.524 330.524C145.16 328.647 145.913 326.808 146.602 324.949C149.404 317.497 153.102 310.406 157.615 303.83C158.765 302.192 159.998 300.612 161.309 299.097C162.645 297.594 164.076 296.175 165.592 294.849C165.973 294.519 166.342 294.175 166.734 293.858L167.953 292.951C168.762 292.338 169.607 291.774 170.485 291.262C172.254 290.165 174.196 289.37 176.23 288.91L176.092 288.942C179.525 287.97 183.063 287.402 186.63 287.251C190.153 287.021 193.675 286.927 197.192 286.942C204.229 286.957 211.248 287.311 218.256 287.865L217.985 287.955C219.357 286.578 220.614 285.093 221.745 283.515L223.487 281.146C224.035 280.289 224.759 279.556 225.612 278.995C226.474 278.444 227.456 278.103 228.477 278.001C229.477 277.884 230.489 277.903 231.483 278.06C233.46 278.386 235.348 279.111 237.031 280.19C237.055 280.205 237.072 280.229 237.079 280.257C237.085 280.285 237.08 280.314 237.065 280.338C237.05 280.363 237.025 280.38 236.997 280.387C236.969 280.393 236.94 280.388 236.915 280.374L236.908 280.369Z" fill="black"/>
    <path d="M185.586 298.755C186.949 299.138 188.185 299.871 189.171 300.88C190.186 301.873 190.998 303.051 191.562 304.349C192.127 305.641 192.445 307.025 192.499 308.432C192.526 309.124 192.491 309.817 192.392 310.503C192.273 311.184 192.092 311.852 191.85 312.5C191.608 311.83 191.498 311.183 191.32 310.55C191.129 309.922 191.014 309.297 190.802 308.699C190.463 307.511 190.047 306.347 189.558 305.212C189.067 304.084 188.492 302.993 187.84 301.949C187.156 300.839 186.403 299.773 185.586 298.755Z" fill="black"/>
    <path d="M190.353 324.726C190.774 329.536 190.98 334.345 191.109 339.154C191.253 343.962 191.268 348.77 191.259 353.578C191.208 358.385 191.13 363.193 190.926 367.999C190.734 372.806 190.465 377.612 189.979 382.416C189.555 377.606 189.349 372.797 189.22 367.988C189.077 363.179 189.062 358.371 189.074 353.564C189.127 348.756 189.205 343.949 189.41 339.143C189.602 334.336 189.87 329.53 190.353 324.726Z" fill="black"/>
    <path d="M290.403 292.946C294.405 295.43 298.334 298.016 302.19 300.705C304.12 302.048 306.034 303.415 307.932 304.807L310.757 306.946C311.252 307.315 311.719 307.72 312.152 308.158L312.824 308.853L313.389 309.563C314.853 311.435 316.189 313.403 317.387 315.453C318.594 317.472 319.769 319.505 320.911 321.551C323.169 325.662 325.494 329.727 327.887 333.747C329.083 335.758 330.303 337.756 331.545 339.741L333.404 342.716C333.955 343.689 334.609 344.6 335.356 345.435C336.148 346.205 337.091 346.968 337.911 347.927C338.883 348.93 339.468 350.241 339.564 351.629C339.491 353.052 338.866 354.392 337.819 355.369C337.372 355.817 336.902 356.241 336.411 356.642C335.971 356.993 335.543 357.362 335.125 357.743C334.284 358.509 333.51 359.313 332.723 360.179C331.922 361.057 331.093 361.908 330.251 362.75C328.552 364.433 326.747 366.008 324.848 367.466C322.913 368.952 320.805 370.205 318.571 371.197C317.399 371.688 316.167 372.026 314.907 372.202C313.584 372.397 312.233 372.28 310.963 371.862C310.761 371.802 310.588 371.669 310.479 371.489L310.472 371.478C309.651 370.13 308.753 368.787 307.845 367.472C306.937 366.151 305.987 364.861 304.994 363.604C303.996 362.356 302.93 361.163 301.801 360.031C300.714 358.867 299.382 357.954 297.899 357.356L297.891 357.353C297.865 357.344 297.844 357.325 297.831 357.301C297.818 357.277 297.815 357.248 297.822 357.222C297.83 357.196 297.847 357.173 297.87 357.159C297.894 357.144 297.922 357.139 297.949 357.144C299.569 357.559 301.066 358.348 302.319 359.447C303.603 360.477 304.807 361.603 305.92 362.814C308.155 365.215 310.21 367.776 312.066 370.476L311.575 370.092C313.656 370.513 315.82 370.201 317.694 369.209C319.74 368.242 321.663 367.038 323.423 365.623C325.247 364.219 326.991 362.716 328.647 361.12C329.485 360.326 330.314 359.52 331.115 358.687C331.928 357.84 332.803 356.975 333.719 356.186C334.18 355.789 334.651 355.403 335.138 355.035C335.579 354.67 335.998 354.358 336.368 353.986C337.083 353.375 337.551 352.526 337.683 351.599C337.626 350.636 337.239 349.722 336.586 349.008C335.917 348.154 335.072 347.38 334.251 346.451C334.034 346.208 333.832 345.954 333.644 345.689L333.171 344.894L332.318 343.343L330.652 340.249C329.552 338.182 328.429 336.129 327.283 334.091C324.984 330.018 322.56 326.013 319.934 322.14C317.331 318.271 314.691 314.355 311.871 310.781L311.338 310.12L310.782 309.557C310.401 309.152 309.987 308.779 309.546 308.441L306.798 306.276L301.251 301.957C297.545 299.081 293.886 296.136 290.275 293.122C290.253 293.104 290.24 293.079 290.236 293.052C290.233 293.025 290.24 292.997 290.256 292.975C290.273 292.952 290.297 292.937 290.324 292.932C290.351 292.927 290.38 292.932 290.403 292.946L290.403 292.946Z" fill="black"/>
    <path d="M305.033 327.941C303.12 335.07 301.314 342.216 299.805 349.39C299.028 352.946 298.486 356.549 298.182 360.175C298.079 361.918 298.068 363.843 297.914 365.709C297.763 367.612 297.442 369.497 296.954 371.343C295.806 374.993 293.966 378.391 291.532 381.356C290.408 382.843 289.217 384.281 288.101 385.725C287.565 386.443 287.02 387.155 286.539 387.922C286.022 388.663 285.555 389.441 285.09 390.222C283.26 393.394 281.623 396.672 280.19 400.038C278.677 403.391 277.373 406.836 276.098 410.303C277.721 403.056 280.24 396.036 283.599 389.401C284.466 387.724 285.459 386.114 286.57 384.585C287.672 383.074 288.801 381.632 289.865 380.141C292.103 377.351 293.794 374.17 294.85 370.762C295.319 369.047 295.633 367.293 295.789 365.523C295.962 363.717 295.957 361.954 296.124 360.022C296.514 356.309 297.191 352.631 298.147 349.02C299.982 341.854 302.282 334.813 305.033 327.941Z" fill="black"/>
    <path d="M337.011 354.777C339.416 356.629 341.695 358.601 344.009 360.438C344.594 360.885 345.177 361.325 345.749 361.712L346.702 362.274C347.052 362.494 347.386 362.725 347.704 362.967C348.931 363.947 350.06 365.042 351.075 366.237C353.091 368.604 354.676 371.3 355.76 374.206C356.895 377.084 357.216 380.214 356.688 383.259C356.369 380.334 355.526 377.489 354.199 374.857C352.907 372.263 351.297 369.836 349.406 367.632C348.496 366.525 347.488 365.501 346.394 364.571C346.13 364.338 345.857 364.124 345.584 363.925L344.636 363.273C344.014 362.794 343.423 362.276 342.87 361.72C340.705 359.59 338.744 357.265 337.011 354.777Z" fill="black"/>
    <path d="M312.883 371.3C315.032 374.158 316.501 377.462 317.179 380.964C317.255 381.41 317.319 381.86 317.38 382.313C317.422 382.75 317.427 383.267 317.482 383.643C317.567 384.409 317.751 385.161 318.03 385.88C318.64 387.416 319.421 388.88 320.359 390.243C321.289 391.655 322.311 393.004 323.42 394.282C323.956 394.941 324.548 395.552 325.117 396.185C325.734 396.767 326.297 397.415 326.933 397.98C329.358 400.421 332.261 402.342 335.465 403.625C333.681 403.445 331.945 402.944 330.342 402.145C328.741 401.336 327.226 400.37 325.82 399.261C322.989 397.048 320.529 394.405 318.532 391.429C317.517 389.906 316.694 388.266 316.079 386.546C315.782 385.624 315.612 384.667 315.573 383.701C315.545 383.212 315.557 382.859 315.557 382.43L315.495 381.188C315.103 377.786 314.223 374.456 312.883 371.3Z" fill="black"/>
    <path d="M337.011 399.111C337.23 397.715 337.718 396.374 338.449 395.161C339.166 393.935 340.037 392.804 341.042 391.796C342.058 390.805 343.185 389.934 344.402 389.198C345.006 388.833 345.63 388.502 346.272 388.205C346.927 387.938 347.581 387.679 348.249 387.463C347.089 388.26 345.946 389.027 344.861 389.861C343.778 390.685 342.748 391.574 341.777 392.523C340.818 393.48 339.933 394.507 339.129 395.594C338.308 396.695 337.598 397.873 337.011 399.111Z" fill="black"/>
    <path d="M340.956 401.585C343.384 397.736 346.044 394.035 348.921 390.503C350.36 388.733 351.855 387.004 353.407 385.316C354.985 383.638 356.657 382.047 358.414 380.553C360.205 378.994 362.221 377.708 364.395 376.738C365.57 376.248 366.836 376.007 368.111 376.033C369.417 376.066 370.694 376.428 371.821 377.085C373.919 378.426 375.525 380.402 376.399 382.72C376.855 383.823 377.184 384.973 377.381 386.149C377.624 387.366 377.599 388.621 377.308 389.827L376.958 389.068C379.417 390.311 381.785 391.658 384.132 393.06C386.476 394.463 388.788 395.918 391.017 397.5C393.293 399.039 395.403 400.807 397.311 402.778C398.277 403.795 399.096 404.939 399.745 406.177C400.458 407.497 400.628 409.04 400.217 410.481L400.229 410.441C399.919 411.634 399.254 412.706 398.32 413.518C397.812 413.922 397.221 414.21 396.589 414.363C395.957 414.516 395.299 414.529 394.661 414.403C393.477 414.164 392.352 413.698 391.348 413.032C390.383 412.407 389.472 411.704 388.624 410.931L390.088 410.304C390.047 411.789 389.726 413.255 389.142 414.624C388.57 416.006 387.713 417.255 386.627 418.291C385.538 419.311 384.263 420.115 382.87 420.661C382.281 420.914 381.707 421.2 381.151 421.518C380.895 421.663 380.649 421.824 380.415 422.002C380.326 422.069 380.244 422.143 380.168 422.223C380.109 422.273 380.125 422.332 380.178 422.139L379.807 421.102C380.488 421.688 381.051 422.396 381.466 423.19C381.909 424.005 382.141 424.916 382.141 425.842C382.142 426.768 381.91 427.679 381.467 428.494C381.063 429.268 380.533 429.97 379.896 430.571C378.618 431.764 376.995 432.53 375.254 432.761C374.446 432.858 373.632 432.895 372.819 432.874C371.943 432.872 371.073 432.735 370.24 432.467L371.014 432.47C368.468 433.251 365.853 433.786 363.203 434.066C360.56 434.333 357.896 434.319 355.255 434.023C353.881 433.894 352.532 433.578 351.244 433.084C350.529 432.81 349.881 432.386 349.346 431.841C348.81 431.296 348.4 430.643 348.142 429.926C347.764 428.491 347.938 426.968 348.631 425.653C348.94 425.016 349.34 424.428 349.82 423.905C350.33 423.272 351.063 422.855 351.872 422.737L351.781 422.748C352.162 422.691 352.547 422.659 352.932 422.652C353.311 422.644 353.69 422.657 354.067 422.693C354.838 422.755 355.591 422.955 356.291 423.282L355.728 423.935C355.38 423.323 355.109 422.672 354.919 421.996C354.723 421.323 354.636 420.624 354.66 419.925C354.685 419.218 354.887 418.528 355.246 417.918C355.611 417.329 356.107 416.83 356.697 416.46C356.721 416.445 356.75 416.439 356.779 416.444C356.807 416.45 356.832 416.467 356.848 416.491C356.863 416.514 356.868 416.541 356.864 416.568C356.859 416.595 356.845 416.619 356.824 416.637C356.312 417.031 355.898 417.536 355.613 418.113C355.344 418.681 355.216 419.304 355.242 419.931C355.272 420.561 355.402 421.182 355.626 421.772C355.844 422.362 356.132 422.923 356.483 423.446C356.537 423.524 356.564 423.617 356.561 423.711C356.557 423.805 356.524 423.896 356.465 423.97C356.406 424.044 356.325 424.098 356.234 424.123C356.142 424.149 356.045 424.145 355.956 424.112L355.92 424.098C355.302 423.874 354.651 423.751 353.993 423.732C353.658 423.72 353.322 423.728 352.988 423.754C352.66 423.78 352.334 423.825 352.012 423.891L351.968 423.898L351.921 423.902C351.463 424.059 351.066 424.355 350.787 424.748C350.424 425.196 350.128 425.694 349.908 426.225C349.441 427.226 349.362 428.363 349.686 429.418C349.89 429.899 350.196 430.331 350.583 430.685C350.971 431.039 351.43 431.305 351.931 431.467C353.07 431.848 354.255 432.075 355.455 432.142C357.955 432.332 360.467 432.255 362.95 431.914C365.428 431.61 367.872 431.072 370.248 430.307C370.49 430.227 370.751 430.225 370.994 430.301L371.021 430.31C372.305 430.59 373.629 430.643 374.932 430.467C376.19 430.306 377.365 429.759 378.293 428.902C379.203 428.116 379.774 427.013 379.887 425.822C379.892 425.252 379.758 424.689 379.496 424.181C379.227 423.647 378.865 423.164 378.426 422.755L378.349 422.684C378.217 422.563 378.12 422.41 378.068 422.24C378.017 422.07 378.012 421.89 378.055 421.717C378.141 421.359 378.326 421.031 378.589 420.77C378.749 420.604 378.924 420.452 379.11 420.315C379.425 420.085 379.754 419.876 380.097 419.69C380.736 419.341 381.394 419.029 382.069 418.755C383.245 418.329 384.327 417.681 385.255 416.847C386.167 416.008 386.902 414.998 387.419 413.875C387.944 412.75 388.259 411.54 388.35 410.303L388.354 410.239C388.364 410.076 388.421 409.919 388.518 409.787C388.615 409.655 388.749 409.554 388.902 409.494C389.056 409.435 389.223 409.421 389.385 409.453C389.547 409.485 389.695 409.563 389.814 409.676C390.569 410.411 391.381 411.086 392.241 411.697C393.046 412.299 393.96 412.742 394.934 413.001C395.376 413.119 395.839 413.139 396.29 413.058C396.741 412.977 397.167 412.797 397.539 412.532C398.305 411.92 398.87 411.097 399.162 410.166L399.174 410.126C399.557 408.946 399.464 407.665 398.913 406.553C398.366 405.358 397.628 404.259 396.728 403.297C394.894 401.33 392.85 399.566 390.632 398.036C386.16 394.981 381.397 392.368 376.411 390.234C376.277 390.175 376.167 390.071 376.101 389.941C376.036 389.81 376.018 389.661 376.05 389.519L376.061 389.474C376.226 388.458 376.177 387.419 375.918 386.423C375.682 385.376 375.328 384.359 374.864 383.391C374.03 381.478 372.633 379.861 370.855 378.75C369.978 378.278 369.002 378.012 368.005 377.974C367.007 377.936 366.013 378.126 365.102 378.529C363.103 379.404 361.243 380.56 359.577 381.962C357.829 383.363 356.159 384.858 354.577 386.441C352.965 388.011 351.405 389.643 349.89 391.319C346.878 394.687 343.947 398.147 341.136 401.708C341.127 401.719 341.116 401.729 341.104 401.736C341.092 401.743 341.078 401.748 341.064 401.75C341.05 401.752 341.035 401.751 341.021 401.748C341.007 401.744 340.994 401.738 340.983 401.729C340.961 401.713 340.947 401.689 340.942 401.662C340.937 401.636 340.942 401.608 340.956 401.585Z" fill="black"/>
    <path d="M362.903 385.075C362.915 387.081 363.172 389.078 363.67 391.023C363.928 391.942 364.339 392.813 364.885 393.598C365.401 394.337 366.178 394.857 367.063 395.055C367.975 395.272 368.927 395.261 369.834 395.024C370.775 394.808 371.667 394.418 372.464 393.876C374.12 392.736 375.55 391.303 376.685 389.651C375.881 391.574 374.6 393.265 372.96 394.564C372.115 395.262 371.122 395.763 370.056 396.03C368.989 396.297 367.876 396.323 366.798 396.106C365.672 395.834 364.69 395.152 364.048 394.196C363.461 393.289 363.053 392.28 362.844 391.222C362.471 389.188 362.491 387.102 362.903 385.075Z" fill="black"/>
    <path d="M378.992 404.243C381.07 404.318 383.09 404.935 384.849 406.034C385.736 406.566 386.558 407.198 387.299 407.917C388.04 408.627 388.685 409.429 389.219 410.303C388.441 409.636 387.694 408.973 386.899 408.372C386.117 407.764 385.298 407.204 384.446 406.695C383.598 406.181 382.719 405.72 381.812 405.317C380.896 404.9 379.954 404.542 378.992 404.243Z" fill="black"/>
    <path d="M356.106 423.69C356.588 424.173 357.144 424.578 357.753 424.891C358.344 425.231 358.945 425.551 359.552 425.862C360.767 426.482 362 427.076 363.24 427.658C365.711 428.848 368.214 429.985 370.631 431.389C367.915 430.762 365.277 429.838 362.766 428.634C361.503 428.038 360.283 427.354 359.118 426.586C357.892 425.876 356.859 424.883 356.106 423.69Z" fill="black"/>
    <path d="M375.375 408.943C375.803 409.175 376.176 409.493 376.472 409.878C376.642 410.082 376.765 410.322 376.831 410.579C376.898 410.835 376.907 411.104 376.857 411.364C376.702 411.882 376.377 412.333 375.934 412.646C375.534 412.95 375.097 413.203 374.632 413.397C374.419 413.487 374.213 413.59 374.015 413.708C373.828 413.799 373.647 413.903 373.474 414.019L373.002 414.429C372.86 414.582 372.729 414.745 372.611 414.917C372.112 415.605 371.814 416.415 371.748 417.26C371.623 418.093 371.75 418.944 372.111 419.707C372.473 420.469 373.053 421.109 373.779 421.545C373.958 421.666 374.156 421.755 374.365 421.81C374.572 421.877 374.773 421.969 374.986 422.024C375.429 422.109 375.876 422.163 376.326 422.185C376.789 422.197 377.253 422.181 377.714 422.137C378.173 422.057 378.64 421.989 379.117 421.928C378.677 422.1 378.227 422.266 377.771 422.419C377.303 422.547 376.827 422.646 376.346 422.716C375.851 422.757 375.354 422.76 374.859 422.723C374.609 422.68 374.361 422.624 374.118 422.553C373.865 422.506 373.62 422.42 373.393 422.299C372.428 421.865 371.646 421.11 371.184 420.164C370.736 419.226 370.555 418.184 370.661 417.152C370.767 416.119 371.155 415.135 371.784 414.305C371.944 414.098 372.12 413.904 372.309 413.723L372.933 413.239C373.371 412.988 373.833 412.78 374.312 412.617C375.147 412.428 375.876 411.925 376.346 411.215C376.416 411.021 376.442 410.814 376.421 410.609C376.401 410.404 376.335 410.206 376.228 410.029C376.005 409.624 375.717 409.257 375.375 408.943Z" fill="black"/>
    <path d="M366.52 388.167C366.647 388.736 366.823 389.295 367.044 389.835C367.228 390.348 367.555 390.799 367.988 391.136C368.204 391.288 368.45 391.392 368.71 391.441C368.971 391.489 369.238 391.482 369.495 391.418C369.777 391.367 370.055 391.297 370.326 391.207C370.6 391.103 370.869 390.982 371.16 390.887C370.932 391.081 370.681 391.25 370.436 391.435C370.162 391.58 369.878 391.704 369.584 391.805C369.27 391.911 368.935 391.943 368.605 391.9C368.276 391.856 367.961 391.738 367.685 391.554C367.183 391.146 366.826 390.589 366.669 389.965C366.503 389.381 366.452 388.77 366.52 388.167Z" fill="black"/>
    <path d="M367.518 387.463C368.104 387.298 368.712 387.217 369.321 387.223C369.942 387.226 370.559 387.323 371.15 387.511C371.766 387.712 372.303 388.098 372.686 388.616C373.018 389.153 373.132 389.796 373.005 390.413C372.935 389.846 372.715 389.308 372.367 388.854C371.992 388.446 371.511 388.149 370.976 387.997C369.854 387.661 368.69 387.481 367.518 387.463Z" fill="black"/>
    <path d="M375.874 420.073C376.09 419.633 376.42 419.257 376.829 418.984C377.048 418.834 377.294 418.729 377.554 418.676C377.814 418.623 378.082 418.622 378.343 418.674C378.84 418.832 379.276 419.138 379.592 419.55C379.722 419.759 379.858 419.961 379.97 420.173C380.053 420.401 380.15 420.619 380.215 420.847C379.895 420.486 379.612 420.126 379.293 419.812C378.996 419.513 378.628 419.293 378.222 419.174C377.817 419.08 377.391 419.135 377.024 419.329C376.61 419.528 376.224 419.778 375.874 420.073Z" fill="black"/>
    <path d="M356.688 422.474C356.716 421.626 356.934 420.794 357.327 420.039C357.43 419.827 357.577 419.639 357.757 419.485C357.937 419.332 358.146 419.216 358.373 419.146C358.612 419.1 358.859 419.109 359.094 419.171C359.33 419.233 359.548 419.347 359.733 419.504C360.093 419.774 360.398 420.108 360.634 420.489C360.875 420.893 360.956 421.371 360.862 421.831C360.733 422.245 360.514 422.627 360.22 422.948C359.926 423.269 359.565 423.523 359.161 423.69C359.814 423.222 360.277 422.538 360.468 421.762C360.502 421.401 360.417 421.038 360.227 420.728C360.012 420.413 359.741 420.139 359.427 419.92C359.304 419.799 359.155 419.708 358.991 419.653C358.827 419.598 358.652 419.58 358.48 419.602C358.139 419.714 357.849 419.944 357.663 420.249C357.234 420.942 356.905 421.691 356.688 422.474Z" fill="black"/>
    <path d="M343.356 416.196C343.305 417.043 343.065 417.869 342.653 418.613C342.544 418.822 342.392 419.007 342.209 419.156C342.025 419.305 341.812 419.415 341.584 419.479C341.343 419.518 341.097 419.504 340.863 419.435C340.63 419.367 340.414 419.248 340.234 419.086C339.881 418.807 339.584 418.465 339.359 418.078C339.129 417.668 339.06 417.188 339.166 416.731C339.306 416.32 339.535 415.944 339.837 415.631C340.14 415.317 340.508 415.073 340.915 414.916C340.251 415.368 339.77 416.039 339.558 416.809C339.515 417.17 339.59 417.535 339.772 417.85C339.979 418.171 340.243 418.451 340.55 418.678C340.67 418.802 340.817 418.897 340.98 418.957C341.142 419.016 341.316 419.038 341.488 419.021C341.832 418.917 342.128 418.695 342.322 418.395C342.77 417.714 343.118 416.973 343.356 416.196Z" fill="black"/>
    <path d="M351.179 430.214C351.403 429.629 351.717 429.082 352.11 428.592C352.31 428.333 352.551 428.106 352.823 427.921C352.979 427.806 353.161 427.73 353.353 427.7C353.545 427.67 353.742 427.688 353.926 427.751C354.252 427.934 354.497 428.232 354.613 428.585C354.729 428.887 354.803 429.203 354.832 429.525C354.909 430.147 354.881 430.776 354.75 431.389C354.682 430.785 354.578 430.187 354.439 429.596C354.373 429.314 354.285 429.038 354.177 428.769C354.053 428.532 353.904 428.277 353.716 428.222C353.361 428.029 352.808 428.464 352.404 428.858C351.973 429.289 351.564 429.742 351.179 430.214Z" fill="black"/>
    <path d="M337.007 401.649L332.592 406.471C332.592 406.471 332.625 412.637 329.477 412.897C329.477 412.897 327.882 414.328 329.018 414.62C330.035 414.87 333.696 413.97 335.28 414.154C335.28 414.154 342.788 412.681 344.067 413.483C344.452 413.741 344.775 414.079 345.015 414.474C345.254 414.869 345.404 415.311 345.455 415.769L346.067 415.704L369.749 417.102L380.022 401.649L337.007 401.649ZM367.52 412.464L334.286 411.911L338.624 404.987H371.924L367.52 412.464Z" fill="black"/>
    <path d="M309.772 412.9C311.053 411.975 312.502 411.302 314.039 410.919C315.601 410.52 317.219 410.382 318.827 410.509C318.971 410.52 319.105 410.588 319.199 410.697C319.293 410.806 319.34 410.947 319.329 411.09C319.318 411.233 319.251 411.366 319.141 411.46C319.032 411.554 318.889 411.601 318.745 411.591C318.722 411.589 318.7 411.586 318.678 411.582C317.185 411.29 315.654 411.245 314.147 411.45C312.609 411.65 311.123 412.143 309.772 412.9Z" fill="black"/>
    <path d="M318.752 424.094C321.827 424.151 324.902 424.257 327.977 424.547C328.738 424.614 329.534 424.737 330.269 424.822C331.011 424.902 331.759 424.917 332.504 424.866C333.98 424.767 335.428 424.422 336.788 423.847L336.824 423.831C336.957 423.773 337.107 423.77 337.243 423.822C337.378 423.874 337.487 423.977 337.545 424.108C337.604 424.24 337.607 424.389 337.555 424.523C337.502 424.658 337.398 424.765 337.266 424.824L337.235 424.836C335.729 425.38 334.14 425.665 332.537 425.678C331.745 425.685 330.954 425.623 330.174 425.493C329.389 425.354 328.673 425.198 327.907 425.084C324.882 424.618 321.816 424.331 318.752 424.094Z" fill="black"/>
    <path d="M321.122 432.504C322.165 432.131 323.218 431.784 324.283 431.463C325.359 431.126 326.457 430.859 327.569 430.665C327.713 430.642 327.86 430.676 327.978 430.761C328.096 430.845 328.175 430.972 328.198 431.115C328.221 431.257 328.187 431.403 328.101 431.52C328.016 431.637 327.888 431.716 327.744 431.739C327.715 431.743 327.686 431.745 327.657 431.746H327.646C326.559 431.758 325.474 431.84 324.397 431.993C323.304 432.133 322.211 432.306 321.122 432.504Z" fill="black"/>
    <path d="M325.238 405.122C325.797 405.697 326.455 406.17 327.18 406.518C327.915 406.855 328.686 407.108 329.478 407.273C329.06 407.37 328.627 407.392 328.2 407.339C327.768 407.282 327.347 407.161 326.951 406.981C326.563 406.781 326.208 406.522 325.902 406.212C325.596 405.906 325.368 405.533 325.238 405.122Z" fill="black"/>
    <path d="M341.919 424.284C341.629 424.285 341.351 424.173 341.145 423.97C340.939 423.768 340.823 423.493 340.821 423.206C340.82 422.918 340.934 422.642 341.138 422.438C341.342 422.234 341.619 422.118 341.909 422.117L355.753 421.988C355.897 421.984 356.041 422.008 356.175 422.06C356.309 422.113 356.432 422.191 356.535 422.291C356.638 422.392 356.719 422.511 356.775 422.644C356.83 422.776 356.857 422.918 356.856 423.061C356.857 423.203 356.83 423.344 356.777 423.476C356.723 423.609 356.644 423.729 356.543 423.83C356.443 423.932 356.323 424.013 356.191 424.069C356.059 424.124 355.917 424.154 355.773 424.155L341.929 424.284H341.919Z" fill="black"/>
    <path d="M379.96 423.933C379.67 423.933 379.392 423.819 379.187 423.616C378.982 423.413 378.867 423.137 378.866 422.85C378.866 422.563 378.981 422.287 379.186 422.083C379.391 421.88 379.669 421.766 379.959 421.766L418.119 421.716H418.121C418.41 421.716 418.688 421.83 418.894 422.033C419.099 422.236 419.214 422.511 419.214 422.799C419.214 423.086 419.099 423.362 418.895 423.565C418.69 423.769 418.412 423.883 418.122 423.883L379.962 423.933H379.96Z" fill="black"/>
    <path d="M633.298 423.598C633.008 423.599 632.73 423.485 632.525 423.281C632.32 423.078 632.205 422.803 632.205 422.515C632.204 422.228 632.319 421.952 632.524 421.749C632.729 421.546 633.007 421.431 633.297 421.431L668.372 421.389H668.373C668.663 421.389 668.941 421.503 669.146 421.706C669.351 421.909 669.467 422.185 669.467 422.472C669.467 422.759 669.352 423.035 669.147 423.238C668.942 423.442 668.664 423.556 668.375 423.556L633.3 423.598H633.298Z" fill="black"/>
    <path d="M433.528 423.04H430.934C430.865 423.04 430.798 423.013 430.749 422.965C430.699 422.917 430.671 422.851 430.67 422.783C430.669 422.749 430.676 422.716 430.688 422.684C430.701 422.653 430.72 422.625 430.743 422.601C430.767 422.577 430.795 422.558 430.827 422.545C430.858 422.532 430.891 422.525 430.925 422.525H433.528C433.562 422.525 433.596 422.532 433.628 422.544C433.66 422.557 433.689 422.576 433.713 422.6C433.737 422.624 433.756 422.652 433.769 422.684C433.783 422.715 433.789 422.749 433.789 422.783C433.789 422.816 433.783 422.85 433.769 422.881C433.756 422.913 433.737 422.941 433.713 422.965C433.689 422.989 433.66 423.008 433.628 423.021C433.596 423.033 433.562 423.04 433.528 423.04Z" fill="black"/>
    <path d="M96.6267 426.552C96.3369 426.553 96.0584 426.44 95.8525 426.238C95.6466 426.036 95.5302 425.761 95.5288 425.473C95.5275 425.186 95.6413 424.91 95.8453 424.706C96.0493 424.501 96.3268 424.386 96.6166 424.385L144.732 423.941C145.02 423.946 145.294 424.06 145.499 424.26C145.705 424.459 145.825 424.729 145.835 425.014C145.837 425.157 145.81 425.298 145.756 425.43C145.702 425.562 145.623 425.682 145.522 425.784C145.422 425.885 145.302 425.966 145.17 426.022C145.038 426.078 144.896 426.107 144.752 426.109L96.6369 426.552H96.6267Z" fill="black"/>
    <path d="M278.094 276.557C278.498 276.543 278.881 276.374 279.162 276.086C279.443 275.797 279.6 275.412 279.6 275.011C279.6 274.61 279.443 274.225 279.162 273.936C278.881 273.648 278.498 273.479 278.094 273.465C277.69 273.479 277.307 273.648 277.026 273.936C276.745 274.225 276.588 274.61 276.588 275.011C276.588 275.412 276.745 275.797 277.026 276.086C277.307 276.374 277.69 276.543 278.094 276.557Z" fill="black"/>
    <path d="M356.903 246.573L344.14 247.044C339.953 247.17 335.812 247.271 331.695 247.347C327.585 247.404 323.488 247.468 319.408 247.423C315.326 247.392 311.244 247.211 307.121 247.098L307.728 246.497C307.663 248.832 307.556 251.167 307.524 253.503C307.466 255.838 307.464 258.173 307.45 260.509C307.447 265.179 307.546 269.85 307.679 274.521L307.121 273.968L317.306 273.687C317.41 273.684 317.514 273.702 317.611 273.739C317.707 273.776 317.796 273.832 317.871 273.903L317.901 273.931L321.791 277.641H320.453L324.215 273.804C324.305 273.711 324.414 273.637 324.533 273.587C324.653 273.536 324.782 273.509 324.912 273.508L324.938 273.507C330.278 273.464 335.618 273.355 340.959 273.365C343.629 273.352 346.299 273.362 348.969 273.397L356.98 273.498L355.948 274.521C356.022 269.969 356.154 265.416 356.344 260.77L356.903 246.573ZM357.057 246.42L357.616 260.247C357.806 264.942 357.938 269.731 358.011 274.521C358.016 274.788 357.912 275.046 357.725 275.238C357.537 275.429 357.28 275.539 357.011 275.543H357.008L356.98 275.544L348.969 275.644C346.299 275.676 343.629 275.687 340.959 275.677C335.618 275.686 330.278 275.578 324.938 275.534L325.66 275.238L321.791 278.967L321.768 278.989C321.681 279.073 321.578 279.14 321.465 279.184C321.351 279.229 321.23 279.251 321.109 279.249C320.987 279.247 320.867 279.222 320.755 279.174C320.643 279.126 320.542 279.057 320.457 278.971L320.453 278.967L316.712 275.11L317.306 275.354L307.122 275.074L307.09 275.073C306.947 275.069 306.81 275.009 306.712 274.905C306.613 274.802 306.56 274.663 306.564 274.521V274.521C306.697 269.85 306.796 265.179 306.792 260.509C306.778 258.173 306.776 255.838 306.719 253.503C306.687 251.167 306.58 248.832 306.514 246.497C306.512 246.42 306.525 246.343 306.553 246.272C306.581 246.2 306.622 246.134 306.676 246.078C306.729 246.022 306.793 245.978 306.863 245.946C306.934 245.915 307.01 245.898 307.088 245.896H307.088L307.122 245.895C311.309 245.782 315.537 245.601 319.764 245.57C323.994 245.525 328.207 245.589 332.406 245.646C336.599 245.722 340.768 245.823 344.891 245.949L357.057 246.42Z" fill="black"/>
    <path d="M503.531 194.734L484.747 195.056L466.122 195.289L429.129 195.547L410.726 195.483L392.333 195.252C380.059 195.065 367.723 194.976 355.393 195.007L355.745 194.658L355.811 208.67L355.973 222.682L355.393 222.107C366.26 221.96 377.126 221.821 387.993 221.746L420.593 221.568C431.459 221.485 442.326 221.58 453.193 221.578C464.059 221.565 474.926 221.706 485.793 221.793L485.808 221.793C486.041 221.795 486.263 221.889 486.427 222.053L490.208 225.87H489.008L492.866 222.129L492.88 222.115C492.952 222.046 493.037 221.991 493.13 221.954C493.224 221.917 493.323 221.899 493.424 221.9L503.609 222.047L502.969 222.682C503.043 218.083 503.104 213.484 503.232 208.824L503.531 194.734ZM503.686 194.581L503.985 208.515C504.114 213.196 504.175 217.939 504.249 222.682C504.251 222.847 504.187 223.007 504.071 223.126C503.955 223.245 503.795 223.314 503.628 223.316H503.628L503.608 223.317L493.423 223.464L493.981 223.235L490.208 227.06C490.053 227.218 489.84 227.308 489.617 227.31C489.395 227.313 489.18 227.227 489.021 227.073L489.02 227.072L489.008 227.06L485.158 223.311L485.792 223.571C474.926 223.657 464.059 223.799 453.193 223.785C442.326 223.783 431.459 223.879 420.593 223.796L387.993 223.617C377.126 223.543 366.26 223.404 355.393 223.257H355.378C355.303 223.256 355.229 223.24 355.16 223.211C355.091 223.182 355.028 223.139 354.975 223.086C354.923 223.032 354.881 222.969 354.854 222.9C354.826 222.83 354.812 222.756 354.813 222.682L354.975 208.67L355.041 194.658C355.041 194.565 355.078 194.476 355.144 194.411C355.21 194.345 355.3 194.308 355.393 194.308C367.766 194.339 380.132 194.25 392.561 194.063L411.222 193.833L429.872 193.768L466.988 194.026L485.416 194.258L503.686 194.581Z" fill="black"/>
    <path d="M400.617 134.932C392.603 135.158 384.726 135.315 376.893 135.451C369.044 135.612 361.288 135.684 353.536 135.744C345.787 135.804 338.089 135.756 330.374 135.585C322.656 135.454 314.902 135.24 307.122 135.202L307.471 134.855C307.468 137.19 307.435 139.526 307.461 141.861L307.504 148.867C307.51 153.538 307.625 158.208 307.693 162.879L307.122 162.312L317.306 162.123C317.402 162.121 317.497 162.138 317.586 162.172C317.675 162.207 317.757 162.259 317.826 162.325L317.846 162.344L321.722 166.067H320.522L324.289 162.236C324.371 162.153 324.468 162.087 324.575 162.041C324.683 161.995 324.799 161.971 324.916 161.97L324.938 161.97L343.877 161.807C350.19 161.757 356.503 161.711 362.816 161.721C375.442 161.715 388.068 161.898 400.694 162.065L399.873 162.879L400.209 149.066L400.617 134.932ZM400.771 134.778L401.18 148.667L401.515 162.879C401.52 163.09 401.441 163.294 401.294 163.447C401.147 163.599 400.945 163.688 400.732 163.693L400.724 163.693L400.694 163.693C388.068 163.86 375.442 164.043 362.816 164.037C356.503 164.047 350.19 164.001 343.877 163.952L324.937 163.788L325.586 163.522L321.723 167.258L321.705 167.274C321.547 167.428 321.333 167.512 321.111 167.51C320.89 167.507 320.678 167.417 320.524 167.26L320.522 167.258L316.767 163.414L317.306 163.635L307.121 163.446L307.102 163.446C307.028 163.445 306.956 163.429 306.888 163.4C306.82 163.371 306.759 163.329 306.707 163.276C306.656 163.224 306.615 163.162 306.588 163.093C306.561 163.025 306.548 162.952 306.549 162.879C306.618 158.208 306.733 153.538 306.739 148.867L306.782 141.861C306.808 139.526 306.774 137.19 306.771 134.855C306.771 134.763 306.808 134.675 306.874 134.61C306.94 134.544 307.029 134.508 307.121 134.508C314.936 134.469 322.778 134.256 330.655 134.125C338.536 133.954 346.434 133.906 354.279 133.966C362.123 134.025 369.962 134.098 377.709 134.259C385.472 134.394 393.19 134.552 400.771 134.778V134.778Z" fill="black"/>
</svg>
