<svg width="39" height="39" viewBox="0 0 39 39" fill="none" xmlns="http://www.w3.org/2000/svg">
    <g clip-path="url(#clip0_234_3)">
        <path d="M0.537899 18.4892C0.537899 18.4892 1.41865 18.3446 1.78102 18.7232C2.1434 19.1019 1.90615 19.8867 1.42352 19.8997C0.942524 19.916 0.497274 20.0021 0.182024 19.6657C0.100229 19.5735 0.0434172 19.4619 0.0170051 19.3415C-0.00940695 19.2211 -0.00453828 19.096 0.0311469 18.978C0.066832 18.8601 0.132144 18.7532 0.220854 18.6676C0.309565 18.5821 0.418716 18.5206 0.537899 18.4892ZM10.0945 23.8387C10.01 23.855 9.92065 23.8111 9.82802 23.7445C9.19752 22.8637 8.9684 19.8559 8.67915 19.6771C8.37852 19.4919 7.2914 21.3444 5.1269 21.1445C4.22177 21.0616 3.3004 20.475 2.75927 20.0687C2.80802 19.3862 2.81777 17.7889 4.1649 18.3089C4.9839 18.6241 6.38627 19.4886 7.61802 17.9351C8.97978 16.2159 9.73053 16.7164 10.1806 17.0901C10.6308 17.4639 10.3301 19.4057 11.0029 18.8614C11.674 18.3186 14.3861 14.9451 14.3861 14.9451C14.3861 14.9451 16.4857 12.8277 16.8074 15.054C17.1275 17.2802 18.4974 19.747 18.8598 19.6771C19.2222 19.6072 23.4455 11.024 24.0517 10.4699C24.6562 9.91574 26.6923 9.98886 26.5948 11.4091C26.4973 12.8294 26.2909 21.6596 26.2909 21.6596C26.2909 21.6596 26.052 24.1475 26.442 22.8182C26.6029 22.2657 26.7768 21.7701 26.9929 21.1884C28.2424 17.2022 29.4763 13.2112 30.6947 9.21536L31.2098 7.44411C31.2537 7.26295 31.3063 7.08399 31.3674 6.90786C31.4422 6.65761 31.4909 6.49349 31.5072 6.44961C31.5462 6.33911 31.6567 6.25461 31.8127 6.19449C31.9703 6.09536 32.1376 6.09049 32.3278 6.08561C32.8185 6.04174 33.449 6.10511 34.0178 6.26761C34.1835 6.26761 34.3623 6.32774 34.5329 6.44961C34.7035 6.57149 34.5427 6.44961 34.5573 6.46586C34.5622 6.46586 34.5654 6.46586 34.5703 6.48211C34.6301 6.5261 34.6837 6.57804 34.7295 6.63649C34.7312 6.63649 34.7328 6.63649 34.736 6.65274C34.7661 6.69052 34.7938 6.73014 34.8189 6.77136C35.1374 7.23611 35.3308 8.09411 35.1358 9.61511C34.6483 13.4095 34.2729 21.2176 34.2729 21.2176C34.2729 21.2176 34.1965 21.5897 34.9798 19.9452C35.0074 19.8884 35.0415 19.838 35.074 19.786C35.1299 19.7476 35.1797 19.701 35.2219 19.6479C35.7062 19.0726 37.0045 18.733 37.9048 18.7411C38.285 18.7866 38.6035 18.8825 38.7937 19.0011C39.1479 19.5422 38.9399 21.5394 38.9399 21.5394C38.1892 21.6092 36.7608 22.0122 36.2538 22.087C35.7484 22.1617 34.9782 25.4507 33.9089 25.1144C32.8397 24.778 30.4558 23.283 30.4558 23.0782C30.5284 22.0646 30.6108 21.0516 30.7028 20.0395C30.7024 20.0319 30.7024 20.0243 30.7028 20.0167C30.7385 19.5731 30.7077 19.3797 30.5029 19.8217C30.3258 20.2036 29.5588 22.6427 28.7024 25.2996C28.6114 25.532 26.9945 30.4281 26.7817 31.0245C26.5282 31.7184 26.3153 32.2481 26.169 32.5211C25.9448 32.825 25.6425 33.0151 25.2217 32.8884C24.1719 32.5699 22.841 31.1171 22.828 30.7596C22.8037 28.7267 22.9255 17.8019 22.4348 18.7119C21.9294 19.6462 17.9985 26.1235 17.9985 26.1235C17.9335 26.1397 17.8848 26.1397 17.8263 26.1397C17.5468 26.1089 17.1161 26.0195 16.9975 25.753C16.991 25.7367 16.9813 25.7237 16.9764 25.7075L16.9536 25.6425C16.9 25.4637 16.8789 25.2687 16.8318 25.1111C16.5951 24.3374 16.3442 23.5681 16.0794 22.8036C15.626 21.3265 15.1596 19.8185 15.0833 19.6511C14.9338 19.3261 14.7144 19.4626 14.5194 19.6511C13.6419 20.3954 11.778 23.6811 10.0945 23.8599" fill="#5F5FFF"/>
    </g>
    <defs>
        <clipPath id="clip0_234_3">
            <rect width="39" height="39" fill="white"/>
        </clipPath>
    </defs>
</svg>
